<?xml version="1.0" encoding="UTF-8"?><svg id="Capa_2" xmlns="http://www.w3.org/2000/svg" viewBox="0 0 51.3 44.99"><defs><style>.cls-1{fill:#fff;}.cls-2{fill:#2b75db;}</style></defs><g id="Capa_1-2"><path class="cls-1" d="M34.83,38.68c-3.54,2.68-7.78,4.1-12.23,4.1-11.24,0-20.39-9.1-20.39-20.29S11.35,2.2,22.59,2.2c4.46,0,8.69,1.42,12.23,4.1,3.03,2.29,5.38,5.44,6.73,8.97h2.34c-1.44-4.23-4.16-8.02-7.74-10.73C32.23,1.57,27.54,0,22.59,0,10.14,0,0,10.09,0,22.49s10.14,22.49,22.59,22.49c4.94,0,9.63-1.57,13.57-4.55,3.58-2.71,6.31-6.5,7.74-10.73h-2.34c-1.35,3.53-3.7,6.68-6.73,8.97Z"/><path class="cls-1" d="M22.59,6.11c-9.03,0-16.38,7.35-16.38,16.38s7.35,16.38,16.38,16.38c7.73,0,14.23-5.38,15.94-12.6l-1.34-2.68h-.46c-.56,7.3-6.69,13.07-14.13,13.07-7.82,0-14.18-6.36-14.18-14.18s6.36-14.18,14.18-14.18,13.57,5.77,14.13,13.07h.46l1.34-2.68c-1.71-7.21-8.21-12.6-15.94-12.6Z"/><path class="cls-1" d="M22.59,12.22c-5.66,0-10.27,4.61-10.27,10.27s4.61,10.27,10.27,10.27c5.29,0,9.66-4.02,10.21-9.17h-2.22c-.54,3.93-3.91,6.96-7.99,6.96-4.45,0-8.07-3.62-8.07-8.07s3.62-8.07,8.07-8.07c4.07,0,7.45,3.04,7.99,6.96h2.22c-.55-5.15-4.92-9.17-10.21-9.17Z"/><path class="cls-1" d="M22.59,18.33c-2.29,0-4.16,1.87-4.16,4.16s1.87,4.16,4.16,4.16c1.91,0,3.52-1.3,4.01-3.06h-2.4c-.35.51-.94.85-1.61.85-1.08,0-1.95-.88-1.95-1.95s.88-1.95,1.95-1.95c.67,0,1.26.34,1.61.85h2.4c-.48-1.76-2.1-3.06-4.01-3.06Z"/><path class="cls-2" d="M48.85,23.59h1.35c.61,0,1.1-.49,1.1-1.1s-.49-1.1-1.1-1.1h-1.35l2.33-4.5c.18-.34.16-.75-.04-1.08-.2-.33-.56-.53-.94-.53h-9.27c-.42,0-.8.24-.99.61l-2.75,5.5h-14.35c-.61,0-1.1.49-1.1,1.1s.49,1.1,1.1,1.1h14.35l2.75,5.5c.19.37.57.61.99.61h9.27c.38,0,.74-.2.94-.53.2-.33.21-.74.04-1.08l-2.33-4.5ZM41.61,17.48h6.78l-2.02,3.91h-6.71l1.95-3.91ZM41.61,27.5l-1.95-3.91h6.71l2.02,3.91h-6.78Z"/></g></svg>