<?xml version="1.0" encoding="UTF-8"?><svg id="Capa_2" xmlns="http://www.w3.org/2000/svg" viewBox="0 0 44.74 44.74"><defs><style>.cls-1{fill:#fff;}.cls-2{fill:#1e6bd0;}</style></defs><g id="Capa_1-2"><path class="cls-2" d="M4.51,23.24c-.14,0-.28-.03-.41-.09-.34-.16-.55-.5-.55-.87v-3.48h-.82C1.23,18.8,0,17.57,0,16.06V5.4C0,3.89,1.23,2.67,2.74,2.67h14.39c.53,0,.96.43.96.96s-.43.96-.96.96H2.74c-.45,0-.82.37-.82.82v10.66c0,.45.37.82.82.82h1.78c.53,0,.96.43.96.96v2.39l3.75-3.13c.17-.14.39-.22.62-.22h7.28c.53,0,.96.43.96.96s-.43.96-.96.96h-6.94l-5.06,4.22c-.18.15-.39.22-.62.22Z"/><path class="cls-2" d="M10.73,40.3c-.25,0-.49-.09-.68-.28l-4.15-4.15c-1.36-1.36-1.36-3.56,0-4.92.66-.66,1.53-1.02,2.46-1.02s1.73.33,2.37.93c.65-.6,1.48-.93,2.37-.93s1.8.36,2.46,1.02c1.36,1.36,1.36,3.56,0,4.92l-4.15,4.15c-.19.19-.43.28-.68.28ZM8.36,31.86c-.41,0-.81.16-1.1.46-.61.61-.61,1.59,0,2.2l3.47,3.47,3.47-3.47c.61-.61.61-1.59,0-2.2-.29-.29-.68-.46-1.1-.46s-.81.16-1.1.46l-.59.59c-.38.38-.98.38-1.36,0l-.59-.59c-.29-.29-.68-.46-1.1-.46Z"/><path class="cls-2" d="M35.15,25.91h-6.82c-.54,0-1.07-.16-1.52-.46l-1.98-1.32h-2.37c-.53,0-.96-.43-.96-.96v-10.66c0-.53.43-.96.96-.96h2.37l1.63-1.09c.23-.15.36-.41.36-.68v-4.38c0-.53.43-.96.96-.96h.89c2.49,0,4.51,2.03,4.51,4.51v2.59h3.48c1.1,0,2.13.49,2.82,1.35.69.86.96,1.96.73,3.04l-1.52,7.11c-.36,1.66-1.85,2.87-3.55,2.87ZM23.42,22.21h1.7c.19,0,.38.06.53.16l2.22,1.48c.13.09.29.14.45.14h6.82c.8,0,1.5-.57,1.67-1.35l1.52-7.11c.11-.51-.02-1.03-.34-1.43-.33-.4-.81-.63-1.33-.63h-4.44c-.53,0-.96-.43-.96-.96v-3.55c0-1.4-1.12-2.55-2.52-2.59v3.42c0,.92-.46,1.77-1.22,2.28l-1.87,1.25c-.16.11-.34.16-.53.16h-1.7v8.74h0Z"/><path class="cls-1" d="M41.12,0h-21.32c-2,0-3.63,1.63-3.63,3.63v21.42H2.74c-1.51,0-2.74,1.23-2.74,2.74v14.21c0,1.51,1.23,2.74,2.74,2.74h15.99c1.51,0,2.74-1.23,2.74-2.74v-1.43l4.22-5.06c.24-.29.29-.69.13-1.02-.16-.34-.5-.55-.87-.55h-3.48v-3.59h10.69v4.37c0,.39.23.74.59.89.12.05.24.07.37.07.25,0,.5-.1.68-.28l5.05-5.05h2.27c2,0,3.63-1.63,3.63-3.63V3.63c0-2-1.63-3.63-3.63-3.63ZM22.89,35.86l-3.13,3.75c-.14.17-.22.39-.22.62v1.78c0,.45-.37.82-.82.82H2.74c-.45,0-.82-.37-.82-.82v-14.21c0-.45.37-.82.82-.82h13.44c.12,1.8,1.57,3.24,3.37,3.37v4.56c0,.53.43.96.96.96h2.39ZM42.82,26.72c0,.94-.76,1.7-1.7,1.7h-2.67c-.26,0-.5.1-.68.28l-3.69,3.69v-3.01c0-.53-.43-.96-.96-.96h-13.33c-.94,0-1.7-.76-1.7-1.7V3.63c0-.94.76-1.7,1.7-1.7h21.32c.94,0,1.7.76,1.7,1.7v23.1Z"/></g></svg>