<?xml version="1.0" encoding="UTF-8"?><svg id="Capa_2" xmlns="http://www.w3.org/2000/svg" viewBox="0 0 37.2 42.96"><defs><style>.cls-1{fill:#fff;}.cls-2{fill:#1e6bd0;}</style></defs><g id="Capa_1-2"><path class="cls-1" d="M36.28,18.45c.51,0,.92-.41.92-.92s-.41-.92-.92-.92h-3.08v-2.11h3.08c.51,0,.92-.41.92-.92s-.41-.92-.92-.92h-3.08v-1.28c0-.24-.1-.48-.27-.65l-2.42-2.42c-.17-.17-.41-.27-.65-.27h-1.28v-3.08c0-.51-.41-.92-.92-.92s-.92.41-.92.92v3.08h-2.11v-3.08c0-.51-.41-.92-.92-.92s-.92.41-.92.92v3.08h-3.03v1.84h9.72l1.88,1.88v19.43l-1.88,1.88h-9.72v1.84h3.03v3.08c0,.51.41.92.92.92s.92-.41.92-.92v-3.08h2.11v3.08c0,.51.41.92.92.92s.92-.41.92-.92v-3.08h1.28c.24,0,.48-.1.65-.27l2.42-2.42c.17-.17.27-.41.27-.65v-1.29h3.08c.51,0,.92-.41.92-.92s-.41-.92-.92-.92h-3.08v-2.11h3.08c.51,0,.92-.41.92-.92s-.41-.92-.92-.92h-3.08v-2.11h3.08c.51,0,.92-.41.92-.92s-.41-.92-.92-.92h-3.08v-2.11h3.08Z"/><path class="cls-1" d="M28.12,30.77h-8.36v-1.84h7.45v-14.89h-7.45v-1.84h8.36c.51,0,.92.41.92.92v16.73c0,.51-.41.92-.92.92Z"/><rect class="cls-1" x="12.97" y="20.56" width="6.79" height="1.84"/><path class="cls-2" d="M10.84,24.53c-1.68,0-3.05-1.37-3.05-3.05s1.37-3.05,3.05-3.05,3.05,1.37,3.05,3.05c0,1.68-1.37,3.05-3.05,3.05ZM10.84,20.27c-.67,0-1.21.54-1.21,1.21s.54,1.21,1.21,1.21,1.21-.54,1.21-1.21c0-.67-.54-1.21-1.21-1.21Z"/><path class="cls-1" d="M19.63,17.14h-3.65c-.24,0-.48-.1-.65-.27l-2.97-2.97,1.3-1.3,2.7,2.7h3.27v1.84Z"/><path class="cls-2" d="M11.5,14.79c-.78,0-1.56-.3-2.16-.89h0s0,0,0,0c-.58-.58-.89-1.34-.89-2.16s.32-1.58.89-2.16c1.19-1.19,3.12-1.19,4.31,0,.58.58.89,1.34.89,2.16s-.32,1.58-.89,2.16c-.59.59-1.38.89-2.16.89ZM11.5,10.53c-.66,0-1.21.55-1.21,1.21,0,.32.13.63.35.86.47.47,1.24.47,1.71,0,.23-.23.35-.53.35-.86,0-.66-.55-1.21-1.21-1.21Z"/><path class="cls-1" d="M13.66,30.36l-1.3-1.3,2.97-2.97c.17-.17.41-.27.65-.27h3.65v1.84h-3.27l-2.7,2.7Z"/><path class="cls-2" d="M11.5,34.26c-.78,0-1.56-.3-2.16-.89-.57-.57-.89-1.34-.89-2.15,0-.82.32-1.58.89-2.16,1.19-1.19,3.12-1.19,4.31,0,.58.58.89,1.34.89,2.16,0,.81-.32,1.58-.89,2.15-.59.59-1.37.89-2.15.89ZM11.5,30.01c-.66,0-1.21.55-1.21,1.21,0,.32.13.62.35.85.47.47,1.24.47,1.71,0,.23-.23.35-.53.35-.85,0-.66-.55-1.21-1.21-1.21Z"/><path class="cls-2" d="M15.54,0c-2.3,0-4.3,1.54-4.93,3.69-1.73.19-3.34.96-4.58,2.22-1.42,1.44-2.2,3.34-2.2,5.36,0,.98.19,1.94.55,2.84-1.16.63-2.15,1.52-2.91,2.62-.97,1.4-1.48,3.05-1.48,4.75,0,3.12,1.69,5.92,4.38,7.38-.36.9-.55,1.86-.55,2.84,0,2.02.78,3.92,2.2,5.36,1.24,1.26,2.85,2.03,4.58,2.22.63,2.15,2.63,3.69,4.93,3.69,2.83,0,5.13-2.3,5.13-5.13V5.13c0-2.83-2.3-5.13-5.13-5.13ZM18.84,37.83c0,1.82-1.48,3.3-3.3,3.3-1.32,0-2.48-.79-3-1.94.58-.11,1.15-.29,1.69-.54.84-.39,1.59-.91,2.23-1.57.36-.36.35-.94-.01-1.3-.36-.36-.95-.35-1.3.01-.48.49-1.05.89-1.69,1.18-.67.31-1.38.48-2.11.51-3.14-.05-5.68-2.64-5.68-5.78,0-.99.26-1.97.74-2.83.13-.23.15-.51.07-.76-.09-.25-.28-.45-.52-.55-2.5-1-4.11-3.39-4.11-6.08s1.61-5.08,4.11-6.08c.25-.1.44-.3.52-.55.09-.25.06-.53-.07-.76-.48-.86-.74-1.84-.74-2.83,0-3.14,2.55-5.73,5.68-5.78.73.03,1.44.2,2.11.51.64.29,1.2.69,1.68,1.19.34.34.94.37,1.3.02.36-.35.37-.94.02-1.3-.64-.66-1.39-1.19-2.24-1.57-.55-.25-1.11-.43-1.69-.54.52-1.15,1.69-1.94,3-1.94,1.82,0,3.3,1.48,3.3,3.3v32.69h0Z"/></g></svg>