<?xml version="1.0" encoding="UTF-8"?><svg id="Capa_2" xmlns="http://www.w3.org/2000/svg" viewBox="0 0 30.26 43.14"><defs><style>.cls-1{fill:#fff;}.cls-2{fill:#1e6bd0;}</style></defs><g id="Capa_1-2"><path class="cls-2" d="M8.57,18.35c-.24,0-.48-.09-.66-.28-1.8-1.84-4.06-4.16-5.53-5.66C-1.02,9.13-.88,2.94,3.49.72,5.98-.6,9.3-.03,11.16,2.05c4-4.2,10.99-1.54,11.18,4.38.1,2.11-.86,4.52-2.39,5.99-.16.16-3.42,3.48-5.54,5.64-.36.37-.95.37-1.31.01-.37-.36-.37-.95-.01-1.31,1.27-1.3,5.49-5.6,5.57-5.67,1.13-1.09,1.9-3.01,1.83-4.57-.09-2.62-2.08-4.67-4.61-4.65-1.61,0-3.08.82-3.93,2.2-.35.58-1.23.58-1.58,0C7.86.14,2,1.76,1.83,6.51c-.07,1.56.7,3.49,1.83,4.57.02.02.06.06,1.07,1.09,1.14,1.17,3.06,3.13,4.5,4.6.58.58.15,1.58-.66,1.58Z"/><path class="cls-1" d="M26.74,23.99c-.72,0-1.38.21-1.94.58-.79-1.99-3.39-2.82-5.19-1.58-.74-1.87-3.12-2.75-4.92-1.75v-6.64c0-1.94-1.58-3.52-3.52-3.52s-3.52,1.58-3.52,3.52v9.06h-2.22c-1.94,0-3.52,1.58-3.52,3.52v6.91c0,.17.05.34.14.49l3.62,5.89c1.02,1.65,2.86,2.68,4.8,2.68h13.88c3.27,0,5.92-2.66,5.92-5.92v-9.71c0-1.94-1.58-3.52-3.52-3.52ZM28.41,37.22c0,2.24-1.83,4.07-4.07,4.07h-13.88c-1.3,0-2.54-.69-3.22-1.8l-3.48-5.66v-6.65c0-.92.75-1.67,1.67-1.67h2.22c0,.98,0,3.32,0,4.32h0c.09,1.3,1.81,1.2,1.85,0h0c0-1.72,0-2.4,0-5.28v-9.95c0-.92.75-1.67,1.67-1.67s1.67.75,1.67,1.67v12.46c.05,1.23,1.8,1.23,1.85,0v-2.71c.09-2.21,3.25-2.21,3.34,0v4.3c0,.51.41.93.93.93s.93-.41.93-.93v-2.71c.09-2.21,3.25-2.21,3.34,0v5.09c0,.51.41.93.93.93s.93-.41.93-.93v-3.51c0-.92.75-1.67,1.67-1.67s1.67.75,1.67,1.67v9.71h0Z"/></g></svg>