<?xml version="1.0" encoding="UTF-8"?><svg id="Capa_2" xmlns="http://www.w3.org/2000/svg" viewBox="0 0 54.95 36.31"><defs><style>.cls-1{fill:#fff;} @media (prefers-color-scheme: light) { .cls-1 { fill: #000; } }</style></defs><g id="Capa_1-2"><path class="cls-1" d="M6.48,7.11c-1.27,0-2.26-.31-2.97-.94-.71-.63-1.07-1.5-1.07-2.64,0-1.04.36-1.89,1.09-2.54.73-.66,1.71-.99,2.95-.99s2.26.31,2.97.94c.71.63,1.07,1.49,1.07,2.59,0,1.04-.36,1.9-1.09,2.57-.73.67-1.71,1.01-2.95,1.01ZM3.23,36.31V12.06h6.59v24.25H3.23Z"/><path class="cls-1" d="M14.05,36.31V12.06h6.36l.14,4.63-.97.18c.34-.79.8-1.51,1.37-2.15.57-.64,1.23-1.19,1.97-1.65s1.53-.82,2.37-1.08c.84-.26,1.67-.39,2.51-.39,1.27,0,2.41.2,3.44.6,1.02.4,1.89,1.02,2.6,1.86.71.84,1.27,1.95,1.67,3.32l-1.02-.09.33-.73c.4-.73.91-1.41,1.53-2.02.62-.61,1.32-1.13,2.09-1.56.77-.43,1.58-.76,2.41-1.01.84-.24,1.66-.37,2.46-.37,1.92,0,3.51.37,4.78,1.12,1.27.75,2.22,1.87,2.85,3.37.63,1.5.95,3.33.95,5.5v14.72h-6.59v-14.26c0-1.1-.16-2-.46-2.7-.31-.7-.76-1.23-1.35-1.58-.59-.35-1.35-.53-2.27-.53-.71,0-1.37.11-1.97.34s-1.13.55-1.58.96c-.45.41-.8.9-1.04,1.47-.25.57-.37,1.17-.37,1.81v14.49h-6.64v-14.3c0-1.01-.16-1.87-.46-2.59-.31-.72-.76-1.26-1.35-1.63-.59-.37-1.32-.55-2.18-.55-.71,0-1.37.11-1.97.34s-1.12.55-1.56.96c-.43.41-.77.89-1.02,1.44-.25.55-.37,1.15-.37,1.79v14.53h-6.64Z"/><polygon class="cls-1" points="54.95 23.78 54.92 28.17 0 30.52 .03 26.13 54.95 23.78"/></g></svg>