<?xml version="1.0" encoding="UTF-8"?><svg id="Capa_2" xmlns="http://www.w3.org/2000/svg" viewBox="0 0 64.88 64.88"><defs><style>.cls-1{fill:#2b75db;}.cls-2{fill:none;stroke:#2b75db;stroke-miterlimit:10;}</style></defs><g id="Capa_1-2"><path class="cls-1" d="M24.31,16.36c2.88-1.55,5.66-2.32,8.33-2.32,3.05.38,5.19.83,6.39,1.34,5.03,2.18,7.54,6.07,7.54,11.64l-.19,2.7c-1.65,6.98-4.88,10.47-9.67,10.47h-1.75c-.95,0-2.5-.71-4.64-2.13-.3,0-.69,1.42-1.18,4.26-.68,3.44-2.1,6.28-4.26,8.53h-.38v-4.45c.38-2.97,1.35-7.94,2.89-14.92-.51-1.95-.76-3.05-.76-3.31v-1.15c0-2.04.96-3.66,2.89-4.87h1.94c1.17.49,1.75,1.2,1.75,2.13,0,.51-.58,3.62-1.75,9.32,0,2.46,1.29,3.69,3.88,3.69,1.31-.4,2.15-.73,2.51-.99,2.84-2.23,4.26-5.32,4.26-9.29v-.38c0-.74-.13-1.72-.38-2.93-1.4-4.64-4.37-6.97-8.91-6.97-2.23,0-4.69.97-7.38,2.89-2.44,2.8-3.66,5.32-3.66,7.57,0,1.06.64,2.93,1.91,5.6v.6c0,.42-.19.87-.57,1.34h-.38c-2.97-.87-4.45-3.19-4.45-6.97v-1.15c0-4.09,2-7.52,6.01-10.27Z"/><path class="cls-2" d="M32.44,64.38C14.83,64.38.5,50.05.5,32.44S14.83.5,32.44.5s31.94,14.33,31.94,31.94-14.33,31.94-31.94,31.94Z"/></g></svg>