<?xml version="1.0" encoding="UTF-8"?><svg id="Capa_2" xmlns="http://www.w3.org/2000/svg" viewBox="0 0 64.88 64.88"><defs><style>.cls-1{fill:#2b75db;}.cls-2{fill:none;stroke:#2b75db;stroke-miterlimit:10;}</style></defs><g id="Capa_1-2"><path class="cls-2" d="M32.44,64.38C14.83,64.38.5,50.05.5,32.44S14.83.5,32.44.5s31.94,14.33,31.94,31.94-14.33,31.94-31.94,31.94Z"/><path class="cls-1" d="M15.34,22.3c1.7-4.92,5.07-7.38,10.12-7.38h14.16l2.45.19,2.42.8c3.63,1.59,5.44,4.95,5.44,10.08v13.01c0,4.07-1.1,6.99-3.31,8.75-.98,1.42-4.73,2.13-11.26,2.13-8.53.23-13.57-.1-15.14-.99-3.5-1.84-5.25-5.52-5.25-11.04v-10.12c0-2.12.13-3.93.38-5.44ZM19.64,20.56c-1.04,0-1.56,3.23-1.56,9.7v4.29c0,3.46.13,6.04.38,7.76.83,3.1,3.68,4.64,8.56,4.64,2.93-.13,5.7-.19,8.33-.19h5.63c3.35,0,5.35-2.4,6.01-7.19v-13.77c0-5.17-2.46-7.76-7.38-7.76h-13.58c-3.22,0-5.36.84-6.39,2.51ZM24.09,29.68c1.57-4.14,4.36-6.2,8.37-6.2h.19c1.8,0,3.54.58,5.22,1.75,2.46,2.1,3.69,4.36,3.69,6.78v.41c0,4.26-2.32,7.23-6.97,8.91h-3.88c-4.79-1.63-7.19-4.54-7.19-8.72.17-1.68.36-2.65.57-2.93ZM26.6,32.61c.11,1.08.24,1.73.41,1.94,1.17,2.59,3.04,3.88,5.63,3.88,3.27,0,5.21-2,5.82-6.01,0-.74-.06-1.2-.19-1.37-.95-2.99-2.83-4.49-5.63-4.49h-.19c-3.44,0-5.39,2.02-5.85,6.04ZM41.75,20.94c1.27,0,2.06.78,2.35,2.35-.55,1.29-1.26,1.94-2.13,1.94s-1.59-.65-2.16-1.94c0-1.17.65-1.95,1.94-2.35Z"/></g></svg>