<?xml version="1.0" encoding="UTF-8"?><svg id="Capa_2" xmlns="http://www.w3.org/2000/svg" viewBox="0 0 64.88 64.88"><defs><style>.cls-1{fill:#2b75db;}.cls-2{fill:none;stroke:#2b75db;stroke-miterlimit:10;}</style></defs><g id="Capa_1-2"><path class="cls-2" d="M32.44,64.38C14.83,64.38.5,50.05.5,32.44S14.83.5,32.44.5s31.94,14.33,31.94,31.94-14.33,31.94-31.94,31.94Z"/><path class="cls-1" d="M49.17,20.34c1.55,1.06,2.32,4.61,2.32,10.66v2.7c0,4.26-.38,7.36-1.14,9.29-.72,1.8-3.11,2.7-7.16,2.7h-17.43c-5.05,0-8.27-.32-9.67-.95-1.8-.98-2.7-5.11-2.7-12.41v-.19c.19-6.45.7-9.93,1.53-10.43,0-1.68,5.42-2.51,16.26-2.51s16.84.38,18.01,1.15ZM28.66,37.36h.6l9.07-5.03c-.23-.32-3.39-2.06-9.48-5.22h-.19v10.24Z"/></g></svg>