<?xml version="1.0" encoding="UTF-8"?><svg id="Capa_2" xmlns="http://www.w3.org/2000/svg" viewBox="0 0 64.88 64.88"><defs><style>.cls-1{fill:#2b75db;}.cls-2{fill:none;stroke:#2b75db;stroke-miterlimit:10;}</style></defs><g id="Capa_1-2"><path class="cls-2" d="M32.44,64.38C14.83,64.38.5,50.05.5,32.44S14.83.5,32.44.5s31.94,14.33,31.94,31.94-14.33,31.94-31.94,31.94Z"/><path class="cls-1" d="M27.76,17.46c1.36-3.35,4.27-5.03,8.75-5.03h.99c2.71,0,4.07.19,4.07.57v5.82h-3.88c-2.33.21-3.5,1.32-3.5,3.31v4.68c0,.25.13.38.38.38h6.62v.38c-.4,4.26-.73,6.39-.99,6.39h-5.63c-.21,0-.34.14-.38.41v18.07h-6.9l-.1-1.18v-16.7c-.19-.4-.38-.6-.57-.6h-3.31v-6.78h3.31c.38-.21.57-.41.57-.6l-.19-6.01c.25-1.38.51-2.42.76-3.12Z"/></g></svg>