<?xml version="1.0" encoding="UTF-8"?><svg id="Capa_2" xmlns="http://www.w3.org/2000/svg" viewBox="0 0 78.33 78.33"><defs><style>.cls-1{fill:#fff;}.cls-2{stroke:#fff;stroke-miterlimit:10;}</style></defs><g id="Capa_1-2"><circle class="cls-2" cx="39.17" cy="39.17" r="38.67"/><path class="cls-1" d="M39.79,59.39c-.2,0-.41-.15-.41-.38v-1.61h-3.88c-1.41,0-2.56-1.15-2.56-2.56v-7.16l-3.36,2.59c-.06.05-.14.08-.22.08-.2,0-.41-.15-.41-.38v-2.42h-5.63c-1.91,0-3.46-1.55-3.46-3.45v-6.04c0-.27.21-.37.39-.37s.39.1.39.37v6.04c0,1.47,1.2,2.67,2.68,2.67h6.02c.21,0,.39.17.39.39v2.02l3.02-2.33s.06-.04.1-.06l.11-.04.02-.12c.22-1.22,1.28-2.1,2.52-2.1h1.43l.02-.19c0-.08.01-.16.01-.24v-3.82h0s0-.08,0-.12h0v-6.99c0-1.47-1.2-2.67-2.68-2.67h-10.96c-1.48,0-2.68,1.2-2.68,2.67v1.29c0,.27-.21.37-.39.37s-.39-.1-.39-.37v-1.29c0-1.9,1.55-3.45,3.46-3.45h10.96c.27,0,.54.03.8.1l.26.06v-6.67c0-2.35,1.92-4.27,4.28-4.27h8.39c.27,0,.37.21.37.39s-.1.39-.37.39h-8.39c-1.93,0-3.5,1.57-3.5,3.49v7.04l.09.06c.95.64,1.52,1.71,1.52,2.85v6.84l.1.06c.54.32,1.15.49,1.78.49h7.29c.21,0,.39.17.39.39v2.75l3.99-3.06c.07-.05.15-.08.24-.08h1.99c1.93,0,3.5-1.57,3.5-3.49v-13.86c0-1.92-1.57-3.49-3.5-3.49h-1.76c-.27,0-.37-.21-.37-.39s.1-.39.37-.39h1.76c2.36,0,4.28,1.91,4.28,4.27v13.86c0,2.35-1.92,4.27-4.28,4.27h-1.86l-4.51,3.45c-.06.05-.14.07-.22.07-.2,0-.41-.15-.41-.38v-3.14h-6.9c-.55,0-1.09-.1-1.6-.31l-.29-.12v.31c0,1.19,0,3,0,3.09v.22s.21,0,.21,0h5.34c1.41,0,2.56,1.15,2.56,2.56v2.94c0,.27-.21.37-.39.37s-.39-.1-.39-.37v-2.94c0-.98-.8-1.78-1.79-1.78h-7.78c-.99,0-1.79.8-1.79,1.78v7.75c0,.98.8,1.78,1.79,1.78h4.27c.21,0,.39.17.39.39v1.21l1.96-1.51c.07-.05.15-.08.24-.08h.92c.99,0,1.79-.8,1.79-1.78v-1.06c0-.27.21-.37.39-.37s.39.1.39.37v1.06c0,1.41-1.15,2.56-2.56,2.56h-.79l-2.48,1.91c-.06.05-.14.07-.22.07Z"/><path class="cls-1" d="M46.22,36.77c-.73,0-1.44-.2-2.07-.58l-.2-.12-.1.22c-.06.14-.2.23-.35.23h-3.22c-.21,0-.39-.17-.39-.39v-7.25c0-.21.17-.39.39-.39h3.22c.13,0,.25.07.33.18l.15.23,1.83-2.07c.6-.68.93-1.56.93-2.47,0-.55.47-1.02,1.03-1.02.08,0,.16,0,.23.03h.02c.27.07.49.25.62.48.68,1.19.77,2.66.24,3.93l-.25.58h3.28c.74,0,1.34.61,1.34,1.35v.25c-.01,3.37-.01,5.19,0,5.42.02.36-.12.71-.37.98-.25.27-.6.42-.96.42h-5.69ZM47.76,24.11c-.13,0-.24.11-.24.24,0,1.1-.4,2.16-1.13,2.98l-2.5,2.83v4.85l.33.27c.56.46,1.28.71,2,.71h5.69c.15,0,.3-.06.41-.17.06-.07.16-.21.15-.42-.02-.36-.01-2.55,0-4.86,0,0,0-.75,0-.84,0-.31-.25-.56-.56-.56h-3.86c-.13-.01-.25-.08-.32-.19-.07-.11-.08-.25-.03-.37l.47-1.12c.44-1.04.37-2.26-.19-3.24-.04-.08-.12-.12-.21-.12ZM40.66,35.73h2.44v-6.47h-2.44v6.47Z"/><path class="cls-1" d="M29.46,43.21s-.04,0-.06,0c-.21-.04-.36-.24-.32-.45l.37-2.24h-1.87l-.39,2.37c-.03.19-.19.33-.38.33-.02,0-.04,0-.06,0-.21-.03-.35-.24-.32-.45l.37-2.24h-2.01c-.21,0-.39-.17-.39-.39s.17-.39.39-.39h2.14l.31-1.88h-2.45c-.21,0-.39-.17-.39-.39s.17-.39.39-.39h2.58l.39-2.37c.03-.19.19-.33.38-.33.02,0,.04,0,.06,0,.1.02.19.07.25.16.06.08.08.19.07.29l-.37,2.24h1.87l.39-2.37c.03-.19.19-.33.38-.33.02,0,.04,0,.06,0,.21.04.35.24.32.45l-.37,2.24h2.01c.21,0,.39.17.39.39s-.17.39-.39.39h-2.14l-.31,1.88h2.45c.21,0,.39.17.39.39s-.17.39-.39.39h-2.58l-.39,2.37c-.03.19-.19.33-.38.33ZM27.7,39.74h1.87l.31-1.88h-1.87l-.31,1.88Z"/><path class="cls-1" d="M39.39,53.99c-.06,0-.13-.02-.18-.05-1.07-.57-1.75-1.04-2.22-1.53-.56-.58-.83-1.22-.83-1.96,0-1.16.75-1.86,1.5-2.04.15-.04.3-.05.45-.05.42,0,.82.15,1.14.41l.13.11.13-.11c.31-.26.7-.39,1.12-.39.14,0,.29.02.43.05.77.17,1.56.87,1.56,2.03,0,1.55-1.22,2.52-3.05,3.49-.06.03-.12.05-.18.05ZM38.1,49.13c-.09,0-.17.01-.26.03-.44.11-.91.5-.91,1.29,0,.99.64,1.7,2.35,2.65l.1.06.1-.06c1.71-.94,2.35-1.66,2.35-2.65,0-.78-.51-1.18-.95-1.27-.09-.02-.17-.03-.26-.03-.4,0-.73.21-.9.56-.06.13-.2.22-.34.22h0c-.15,0-.29-.08-.35-.21-.2-.38-.54-.6-.94-.6Z"/></g></svg>