<?xml version="1.0" encoding="UTF-8"?><svg id="Capa_2" xmlns="http://www.w3.org/2000/svg" viewBox="0 0 78.33 78.33"><defs><style>.cls-1{fill:#fff;}.cls-2{stroke:#fff;stroke-miterlimit:10;}</style></defs><g id="Capa_1-2"><circle class="cls-2" cx="39.17" cy="39.17" r="38.67"/><path class="cls-1" d="M38.68,59.17c-.19,0-.4-.15-.4-.38v-1.59h-3.84c-1.4,0-2.54-1.14-2.54-2.53v-7.08l-3.32,2.56c-.06.05-.14.07-.22.07-.19,0-.4-.15-.4-.38v-2.4h-5.57c-1.88,0-3.42-1.53-3.42-3.41v-5.97c0-.27.21-.36.38-.36s.38.1.38.36v5.97c0,1.46,1.19,2.64,2.65,2.64h5.95c.21,0,.38.17.38.38v2l2.98-2.3s.06-.04.1-.06l.11-.04.02-.12c.22-1.2,1.27-2.08,2.5-2.08h1.41l.02-.19c0-.08.01-.16.01-.24v-3.78h0s0-.08,0-.12h0v-6.91c0-1.46-1.19-2.64-2.65-2.64h-10.84c-1.46,0-2.65,1.18-2.65,2.64v1.28c0,.27-.21.36-.38.36s-.38-.1-.38-.36v-1.28c0-1.88,1.53-3.41,3.42-3.41h10.84c.27,0,.53.03.8.09l.26.06v-6.59c0-2.33,1.9-4.22,4.23-4.22h8.3c.27,0,.36.21.36.38s-.1.38-.36.38h-8.3c-1.91,0-3.46,1.55-3.46,3.45v6.96l.09.06c.94.64,1.51,1.69,1.51,2.82v6.77l.1.06c.53.31,1.14.48,1.76.48h7.21c.21,0,.38.17.38.38v2.72l3.95-3.02c.07-.05.15-.08.23-.08h1.97c1.91,0,3.46-1.55,3.46-3.45v-13.7c0-1.9-1.55-3.45-3.46-3.45h-1.74c-.27,0-.36-.21-.36-.38s.1-.38.36-.38h1.74c2.33,0,4.23,1.89,4.23,4.22v13.7c0,2.33-1.9,4.22-4.23,4.22h-1.84l-4.47,3.42c-.06.05-.14.07-.22.07-.19,0-.4-.15-.4-.38v-3.11h-6.82c-.55,0-1.08-.1-1.58-.3l-.29-.11v.31c0,1.18,0,2.97,0,3.05v.22s.21,0,.21,0h5.28c1.4,0,2.54,1.14,2.54,2.53v2.91c0,.27-.21.36-.38.36s-.38-.1-.38-.36v-2.91c0-.97-.79-1.76-1.77-1.76h-7.69c-.98,0-1.77.79-1.77,1.76v7.67c0,.97.79,1.76,1.77,1.76h4.23c.21,0,.38.17.38.38v1.19l1.94-1.5c.07-.05.15-.08.23-.08h.91c.98,0,1.77-.79,1.77-1.76v-1.05c0-.27.21-.36.38-.36s.38.1.38.36v1.05c0,1.4-1.14,2.53-2.54,2.53h-.78l-2.45,1.89c-.06.05-.14.07-.22.07Z"/><path class="cls-1" d="M45.04,36.79c-.72,0-1.43-.2-2.04-.58l-.2-.12-.1.21c-.06.14-.2.22-.35.22h-3.18c-.21,0-.38-.17-.38-.38v-7.17c0-.21.17-.38.38-.38h3.18c.13,0,.25.07.32.17l.15.23,1.81-2.05c.59-.67.92-1.54.92-2.44,0-.55.47-1.01,1.02-1.01.08,0,.15,0,.23.03h.02c.26.07.48.24.62.48.67,1.18.76,2.63.23,3.88l-.24.57h3.24c.73,0,1.32.6,1.32,1.33v.25c-.01,3.33-.01,5.13,0,5.36.02.35-.12.71-.37.97-.25.26-.6.41-.95.41h-5.63ZM46.56,24.27c-.13,0-.24.11-.24.24,0,1.09-.4,2.13-1.12,2.95l-2.48,2.8v4.8l.33.26c.56.45,1.26.7,1.98.7h5.63c.15,0,.3-.06.4-.17.06-.06.16-.2.15-.41-.02-.35-.01-2.52,0-4.81,0,0,0-.74,0-.83,0-.31-.25-.55-.55-.55h-3.82c-.13-.01-.25-.08-.32-.18-.07-.11-.08-.24-.03-.36l.47-1.11c.44-1.03.36-2.23-.19-3.2-.04-.07-.12-.12-.21-.12ZM39.55,35.77h2.42v-6.4h-2.42v6.4Z"/><path class="cls-1" d="M28.47,43.16s-.04,0-.06,0c-.21-.03-.35-.23-.32-.44l.37-2.21h-1.85l-.39,2.34c-.03.19-.19.32-.38.32-.02,0-.04,0-.06,0-.21-.03-.35-.23-.32-.44l.37-2.21h-1.99c-.21,0-.38-.17-.38-.38s.17-.38.38-.38h2.12l.31-1.86h-2.43c-.21,0-.38-.17-.38-.38s.17-.38.38-.38h2.55l.39-2.34c.03-.19.19-.32.38-.32.02,0,.04,0,.06,0,.1.02.19.07.25.16.06.08.08.19.07.29l-.37,2.21h1.85l.39-2.34c.03-.19.19-.32.38-.32.02,0,.04,0,.06,0,.21.03.35.23.32.44l-.37,2.21h1.99c.21,0,.38.17.38.38s-.17.38-.38.38h-2.12l-.31,1.86h2.43c.21,0,.38.17.38.38s-.17.38-.38.38h-2.55l-.39,2.34c-.03.19-.19.32-.38.32ZM26.73,39.73h1.85l.31-1.86h-1.85l-.31,1.86Z"/><path class="cls-1" d="M38.28,53.82c-.06,0-.12-.02-.18-.04-1.05-.56-1.73-1.03-2.2-1.51-.55-.58-.82-1.21-.82-1.94,0-1.15.75-1.84,1.48-2.02.15-.04.29-.05.44-.05.41,0,.81.14,1.13.41l.13.11.13-.11c.31-.25.69-.39,1.11-.39.14,0,.28.02.43.05.77.17,1.54.86,1.54,2.01,0,1.54-1.2,2.49-3.01,3.45-.06.03-.12.04-.18.04ZM37.01,49.02c-.09,0-.17.01-.26.03-.43.11-.9.5-.9,1.27,0,.98.63,1.69,2.33,2.62l.1.06.1-.06c1.7-.93,2.33-1.64,2.33-2.62,0-.78-.5-1.16-.94-1.26-.08-.02-.17-.03-.25-.03-.4,0-.72.2-.89.56-.06.13-.2.22-.34.22h0c-.15,0-.28-.08-.35-.21-.19-.37-.53-.59-.93-.59Z"/></g></svg>