<?xml version="1.0" encoding="UTF-8"?><svg id="Capa_2" xmlns="http://www.w3.org/2000/svg" viewBox="0 0 78.33 78.33"><defs><style>.cls-1{fill:#fff;}.cls-2{stroke:#fff;stroke-miterlimit:10;}</style></defs><g id="Capa_1-2"><circle class="cls-2" cx="39.17" cy="39.17" r="38.67"/><path class="cls-1" d="M29.25,51.06c-.22,0-.4-.18-.4-.4s.18-.4.4-.4h29.1c1.27,0,2.31-1.03,2.31-2.31v-24.33c0-1.27-1.03-2.3-2.31-2.3h-14.87c-.22,0-.4-.18-.4-.4s.18-.4.4-.4h14.87c1.71,0,3.1,1.39,3.1,3.1v24.33c0,1.71-1.39,3.1-3.1,3.1h-29.1Z"/><path class="cls-1" d="M23.19,51.06c-1.71,0-3.1-1.39-3.1-3.1v-24.33c0-1.71,1.39-3.1,3.1-3.1h2.7c.22,0,.4.18.4.4s-.18.4-.4.4h-2.7c-1.27,0-2.3,1.03-2.3,2.3v24.33c0,1.27,1.03,2.31,2.3,2.31h3.51c.22,0,.4.18.4.4s-.18.4-.4.4h-3.51Z"/><path class="cls-1" d="M31.31,59.17c-.22,0-.4-.18-.4-.4v-2.7c0-.22.18-.4.4-.4h18.93c.22,0,.4.18.4.4v2.7c0,.22-.18.4-.4.4h-18.93ZM31.7,58.37h18.13v-1.91h-18.13v1.91Z"/><path class="cls-1" d="M35.02,56.46s-.03,0-.05,0c-.22-.03-.37-.23-.35-.44l.68-5.41c.02-.2.19-.35.4-.35.02,0,.03,0,.05,0,.11.01.2.07.26.15s.09.19.08.29l-.68,5.41c-.03.2-.19.35-.39.35Z"/><path class="cls-1" d="M46.51,56.46c-.2,0-.37-.15-.39-.35l-.68-5.41c-.01-.11.02-.21.08-.29.07-.08.16-.14.27-.15.02,0,.03,0,.05,0,.2,0,.37.15.4.35l.68,5.41c.03.22-.13.42-.35.44-.02,0-.03,0-.05,0Z"/><path class="cls-1" d="M39.42,53.76c-.22,0-.4-.18-.4-.4v-2.7c0-.22.18-.4.4-.4s.4.18.4.4v2.31h1.91v-2.31c0-.22.18-.4.4-.4s.4.18.4.4v2.7c0,.22-.18.4-.4.4h-2.7Z"/><path class="cls-1" d="M20.49,45.65c-.22,0-.4-.18-.4-.4s.18-.4.4-.4h40.55c.22,0,.4.18.4.4s-.18.4-.4.4H20.49Z"/><path class="cls-1" d="M40.77,49.7c-.97,0-1.75-.79-1.75-1.75s.79-1.75,1.75-1.75,1.75.79,1.75,1.75-.79,1.75-1.75,1.75ZM40.77,47c-.53,0-.95.43-.95.95s.43.95.95.95.95-.43.95-.95-.43-.95-.95-.95Z"/><path class="cls-1" d="M58.34,45.65c-.22,0-.4-.18-.4-.4v-21.23h-14.47c-.22,0-.4-.18-.4-.4s.18-.4.4-.4h14.87c.22,0,.4.18.4.4v21.63c0,.22-.18.4-.4.4Z"/><path class="cls-1" d="M23.19,45.65c-.22,0-.4-.18-.4-.4v-21.63c0-.22.18-.4.4-.4h2.7c.22,0,.4.18.4.4s-.18.4-.4.4h-2.31v21.23c0,.22-.18.4-.4.4Z"/><path class="cls-1" d="M25.9,45.65c-.22,0-.4-.18-.4-.4v-25.68c0-.22.18-.4.4-.4h17.57c.22,0,.4.18.4.4v8.11c0,.22-.18.4-.4.4s-.4-.18-.4-.4v-7.71h-16.78v25.29c0,.22-.18.4-.4.4Z"/><path class="cls-1" d="M39.42,45.65c-.22,0-.4-.18-.4-.4v-17.57c0-.22.18-.4.4-.4h16.22c.22,0,.4.18.4.4v17.57c0,.22-.18.4-.4.4h-16.22ZM39.82,44.85h15.42v-16.78h-15.42v16.78Z"/><path class="cls-1" d="M29.95,25.37c-.22,0-.4-.18-.4-.4v-2.7c0-.22.18-.4.4-.4h9.46c.22,0,.4.18.4.4v2.7c0,.22-.18.4-.4.4h-9.46ZM30.35,24.57h8.67v-1.91h-8.67v1.91Z"/><path class="cls-1" d="M28.6,34.16c-.22,0-.4-.18-.4-.4v-4.06c0-.22.18-.4.4-.4h8.11c.22,0,.4.18.4.4v4.06c0,.11-.04.21-.12.28-.08.08-.18.12-.28.12h-8.11ZM29,33.36h7.31v-3.26h-7.31v3.26Z"/><path class="cls-1" d="M28.6,28.07c-.22,0-.4-.18-.4-.4s.18-.4.4-.4h4.06c.22,0,.4.18.4.4s-.18.4-.4.4h-4.06Z"/><path class="cls-1" d="M28.6,42.94c-.22,0-.4-.18-.4-.4v-4.06c0-.22.18-.4.4-.4h8.11c.22,0,.4.18.4.4v4.06c0,.11-.04.21-.12.28-.08.08-.18.12-.28.12h-8.11ZM29,42.15h7.31v-3.26h-7.31v3.26Z"/><path class="cls-1" d="M28.6,36.86c-.22,0-.4-.18-.4-.4s.18-.4.4-.4h4.06c.22,0,.4.18.4.4s-.18.4-.4.4h-4.06Z"/><path class="cls-1" d="M44.82,30.78c-.22,0-.4-.18-.4-.4s.18-.4.4-.4h5.41c.22,0,.4.18.4.4s-.18.4-.4.4h-5.41Z"/><path class="cls-1" d="M42.8,37.2c-.11,0-.21-.04-.28-.12l-.68-.68c-.16-.16-.16-.41,0-.56.08-.08.18-.12.28-.12s.21.04.28.12l.39.39,1.75-1.75c.08-.08.18-.12.28-.12s.21.04.28.12c.08.08.12.18.12.28s-.04.21-.12.28l-2.03,2.03c-.08.08-.18.12-.28.12Z"/><path class="cls-1" d="M46.85,34.83c-.22,0-.4-.18-.4-.4s.18-.4.4-.4h2.7c.22,0,.4.18.4.4s-.18.4-.4.4h-2.7Z"/><path class="cls-1" d="M46.85,37.54c-.22,0-.4-.18-.4-.4s.18-.4.4-.4h6.08c.22,0,.4.18.4.4s-.18.4-.4.4h-6.08Z"/><path class="cls-1" d="M42.8,42.61c-.11,0-.21-.04-.28-.12l-.68-.68c-.16-.16-.15-.41,0-.56.08-.08.18-.12.28-.12s.21.04.28.12l.39.39,1.75-1.75c.08-.08.18-.12.28-.12s.21.04.28.12.12.18.12.28-.04.21-.12.28l-2.03,2.03c-.08.08-.18.12-.28.12Z"/><path class="cls-1" d="M46.85,40.24c-.22,0-.4-.18-.4-.4s.18-.4.4-.4h2.7c.22,0,.4.18.4.4s-.18.4-.4.4h-2.7Z"/><path class="cls-1" d="M46.85,42.94c-.22,0-.4-.18-.4-.4s.18-.4.4-.4h6.08c.22,0,.4.18.4.4s-.18.4-.4.4h-6.08Z"/></g></svg>