<?xml version="1.0" encoding="UTF-8"?><svg id="Capa_2" xmlns="http://www.w3.org/2000/svg" viewBox="0 0 64.88 64.88"><defs><style>.cls-1{fill:#2b75db;}.cls-2{fill:none;stroke:#2b75db;stroke-miterlimit:10;}</style></defs><g id="Capa_1-2"><path class="cls-2" d="M32.44,64.38C14.83,64.38.5,50.05.5,32.44S14.83.5,32.44.5s31.94,14.33,31.94,31.94-14.33,31.94-31.94,31.94Z"/><path class="cls-1" d="M45.8,22.25c-3.4,0-6.15-2.76-6.15-6.15,0-.06,0-.12,0-.18h-4.22c0,.06,0,.12,0,.18v22.68h-.01c-.09,3.32-2.81,5.98-6.14,5.98s-6.15-2.76-6.15-6.15,2.76-6.15,6.15-6.15c1.39,0,2.66.46,3.69,1.24v-4.77c-1.15-.44-2.39-.69-3.69-.69-5.73,0-10.37,4.64-10.37,10.37s4.64,10.37,10.37,10.37c2.8,0,5.34-1.11,7.21-2.91,1.74-1.68,2.89-3.97,3.12-6.51.03-.26.05-.52.05-.78v-14.31c1.72,1.27,3.85,2.02,6.15,2.02.06,0,.12,0,.18,0v-4.23c-.06,0-.12.01-.18.01Z"/></g></svg>