<?xml version="1.0" encoding="UTF-8"?><svg id="Capa_2" xmlns="http://www.w3.org/2000/svg" viewBox="0 0 78.33 78.33"><defs><style>.cls-1{fill:#fff;fill-rule:evenodd;}.cls-2{stroke:#fff;stroke-miterlimit:10;}</style></defs><g id="Capa_1-2"><circle class="cls-2" cx="39.17" cy="39.17" r="38.67"/><path class="cls-1" d="M56.33,56.73c-1.09,0-1.97-.88-1.97-1.97V21.14c0-1.09.88-1.97,1.97-1.97h5.28c1.1,0,1.97.87,1.97,1.97v33.62c0,1.1-.87,1.97-1.97,1.97h-5.28ZM56.33,19.95c-.66,0-1.18.52-1.18,1.18v33.62c0,.65.53,1.18,1.18,1.18h5.28c.66,0,1.21-.54,1.21-1.18V21.14c0-.65-.54-1.18-1.21-1.18h-5.28Z"/><path class="cls-1" d="M57.37,40.6c-.15,0-.3-.07-.37-.19-.06-.09-.07-.2-.03-.32l1.64-4.58c.06-.15.2-.24.38-.24s.31.1.38.25l1.63,4.56c.04.11.01.24-.06.34-.04.06-.14.16-.31.16s-.32-.11-.38-.26l-1.26-3.52-1.26,3.53c-.08.21-.23.26-.35.26Z"/><path class="cls-1" d="M57.59,39.92c-.3,0-.4-.21-.4-.39s.11-.39.4-.39h2.78c.28,0,.38.21.38.39s-.1.39-.38.39h-2.78Z"/><path class="cls-1" d="M57.35,33.64c-.22,0-.39-.18-.39-.39v-4.54c0-.28.21-.38.39-.38s.39.1.39.38v4.54c0,.22-.18.39-.39.39Z"/><path class="cls-1" d="M57.81,31.9c-.37,0-.63-.02-.74-.13-.16-.17-.15-.72-.13-1.63,0-.39.02-.87.02-1.43,0-.22.08-.43.99-.43.19,0,.39,0,.6.02.22,0,.46.02.68.02,1.2,0,1.75.92,1.75,1.78,0,.47-.16.91-.44,1.23-.31.36-.77.55-1.31.55-.35,0-.65,0-.91.01-.2,0-.37,0-.52,0ZM57.74,31.09h.22c.11,0,.23,0,.35,0,.13,0,.27,0,.4,0h0c.3,0,.69-.02.99-.16.34-.16.53-.45.53-.86,0-1.01-1.1-1.01-1.51-1.01-.13,0-.27,0-.4,0-.12,0-.24,0-.35,0h-.22v1.99Z"/><path class="cls-1" d="M60.16,33.67c-.15,0-.26-.06-.34-.18l-1.27-1.8c-.1-.13-.12-.25-.06-.37.07-.14.23-.24.39-.24.12,0,.21.05.29.16l1.3,1.79c.08.12.09.27.01.42-.05.1-.17.22-.32.22Z"/><path class="cls-1" d="M57.81,24.46c-.39,0-.67-.02-.77-.13-.15-.16-.14-.64-.13-1.44,0-.31.01-.68.01-1.11,0-.22.18-.39.39-.39h2.19c1.02,0,1.49.79,1.49,1.52,0,.4-.13.78-.37,1.05-.27.31-.65.47-1.12.47-.43,0-.79,0-1.1.02-.23,0-.42,0-.6,0ZM57.71,23.65h.22c.19,0,.38,0,.57.02.18,0,.35.01.52.01h0c.37,0,.61-.04.8-.12.27-.12.41-.35.41-.66,0-.75-.83-.75-1.18-.75-.17,0-.34,0-.53.01-.19,0-.39.02-.59.02h-.22v1.47Z"/><path class="cls-1" d="M57.87,26.74c-.43,0-.72-.02-.83-.14-.16-.16-.15-.65-.13-1.46,0-.31.01-.68.01-1.11,0-.22.18-.39.39-.39h2.19c1.02,0,1.49.8,1.49,1.54,0,.41-.13.79-.37,1.06-.27.31-.65.47-1.12.47-.41,0-.75,0-1.05.01-.22,0-.42,0-.59,0ZM57.71,25.93h.22c.19,0,.38,0,.57.02.18,0,.35.01.52.01h0c.37,0,.61-.04.8-.12.27-.12.41-.35.41-.66,0-.77-.9-.77-1.28-.77-.15,0-.32,0-.49.01-.17,0-.35.01-.53.01h-.22v1.5Z"/><path class="cls-1" d="M60.68,47.55c-.12,0-.24-.06-.32-.16l-2.69-3.59v3.36c0,.28-.21.38-.39.38s-.39-.1-.39-.38v-4.54c0-.25.2-.4.4-.4.09,0,.21.03.31.17l2.69,3.6v-3.39c0-.28.21-.38.39-.38s.39.1.39.38v4.57c0,.22-.18.39-.39.39Z"/><path class="cls-1" d="M57.86,54.53c-.92,0-1-.21-1-.42v-4.57c0-.21.08-.42.99-.42.17,0,.35,0,.54.01.2,0,.4.01.59.01,1.13,0,2.09.96,2.09,2.09v1.14c0,1.17-.94,2.12-2.09,2.12-.2,0-.39,0-.59.01-.18,0-.37.01-.54.01ZM57.68,53.71h.22c2.3,0,2.39-.28,2.39-2.48,0-1.32-1.31-1.32-1.8-1.32-.11,0-.23,0-.33,0-.09,0-.17,0-.25,0h-.22v3.79Z"/><path class="cls-1" d="M43.12,51.32c-.67-.15-12.45-4.74-13.84-5.3-.26-.1-.25-.31-.24-.4.03-.17.17-.35.38-.35.05,0,.1.01.16.03l13.65,5.28c.23.09.28.28.25.43-.03.14-.14.31-.37.31ZM29.4,30.34c-.21,0-.32-.18-.35-.32-.03-.15.01-.36.23-.45l13.69-5.25c.06-.02.12-.04.17-.04.2,0,.33.17.36.34.02.09.02.32-.25.42-.37.14-1.5.58-2.94,1.14-3.64,1.42-10.4,4.05-10.91,4.16Z"/><path class="cls-1" d="M17.82,44.77c-1.65,0-2.99-1.34-2.99-2.99v-7.94c0-1.65,1.34-2.99,2.99-2.99h8.25c.3,0,.4.21.4.39s-.11.39-.4.39h-8.25c-1.21,0-2.2.99-2.2,2.2v7.94c0,1.21.99,2.2,2.2,2.2h8.25c.3,0,.4.21.4.39s-.11.39-.4.39h-8.25Z"/><path class="cls-1" d="M13.07,41.65c-.95,0-1.75-.8-1.75-1.75v-4.17c0-.95.8-1.75,1.75-1.75h2.16c.3,0,.4.21.4.39s-.11.39-.4.39h-2.16c-.52,0-.97.44-.97.97v4.14c0,1.01,1.04,1.01,1.43,1.01.22,0,.44-.01.66-.03.22-.01.42-.02.62-.02.75,0,.81.2.81.4,0,.23-.18.42-.39.42h-2.16Z"/><path class="cls-1" d="M47.09,43.43c-.91,0-.99-.21-.99-.42s.08-.42.99-.42c.17,0,.35,0,.53.01.19,0,.39.01.58.01.96,0,1.74-.79,1.74-1.77v-6.09c0-1.79-1.77-1.79-2.44-1.79-.19,0-.38,0-.55.01-.16,0-.31,0-.44,0-.28,0-.38-.21-.38-.39s.1-.39.38-.39h1.7c1.39,0,2.53,1.15,2.53,2.56v6.09c0,1.41-1.13,2.56-2.53,2.56-.19,0-.38,0-.58.01-.18,0-.36.01-.53.01Z"/><path class="cls-1" d="M19.99,59.1c-1.99,0-3.27-1.84-3.27-4.69v-10.14c0-.3.21-.4.39-.4s.39.11.39.4v10.14c0,2.37.96,3.9,2.45,3.9.23,0,.53.01.89.02.47.02,1,.03,1.51.03,1.11,0,1.72-.09,1.99-.29,1.57-1.11.89-2.84.11-4.84-.95-2.44-2.13-5.48-.38-9.06.09-.18.23-.22.33-.22.15,0,.3.08.38.21.07.11.07.24,0,.37-1.59,3.24-.47,6.17.42,8.52.9,2.36,1.61,4.23-.41,5.67-.53.37-1.59.42-2.46.42l-2.35-.06Z"/><path class="cls-1" d="M17.11,54.81c-.28,0-.38-.21-.38-.39s.1-.39.38-.39h8.19c.3,0,.4.21.4.39s-.11.39-.4.39h-8.19Z"/><path class="cls-1" d="M27.96,46.78c-1.24,0-2.25-1.02-2.25-2.28v-13.38c0-1.53,1.17-2.23,2.26-2.23s2.26.7,2.26,2.23v13.38c0,1.26-1.02,2.28-2.28,2.28ZM27.96,29.63c-.81,0-1.46.67-1.46,1.49v13.38c0,.95.74,1.45,1.48,1.45s1.48-.5,1.48-1.45v-13.38c0-.82-.67-1.49-1.49-1.49Z"/><path class="cls-1" d="M44.8,54.07c-1.15,0-2.09-.94-2.09-2.09v-28.09c0-1.42,1.09-2.07,2.09-2.07s2.09.65,2.09,2.07v28.09c0,1.17-.92,2.09-2.09,2.09ZM44.8,22.58c-.73,0-1.31.57-1.31,1.31v28.09c0,.85.66,1.29,1.31,1.29s1.31-.44,1.31-1.29v-28.09c0-.71-.6-1.31-1.31-1.31Z"/><path class="cls-1" d="M17.61,35c-.3,0-.4-.21-.4-.39s.11-.39.4-.39h6.12c.28,0,.38.21.38.39s-.1.39-.38.39h-6.12Z"/><path class="cls-1" d="M17.61,38.19c-.3,0-.4-.21-.4-.39s.11-.39.4-.39h6.12c.28,0,.38.21.38.39s-.1.39-.38.39h-6.12Z"/><path class="cls-1" d="M17.61,41.4c-.31,0-.39-.25-.39-.4,0-.06.02-.38.39-.38h6.12c.28,0,.38.21.38.39s-.1.39-.38.39h-6.12Z"/></g></svg>