<?xml version="1.0" encoding="UTF-8"?><svg id="Capa_2" xmlns="http://www.w3.org/2000/svg" viewBox="0 0 171.68 171.68"><defs><style>.cls-1{fill:none;stroke:#fff9f8;stroke-width:30px;}.cls-1,.cls-2{stroke-miterlimit:10;}.cls-2{fill:#fff;stroke:#397fe3;}</style></defs><g id="Capa_1-2"><circle class="cls-1" cx="85.84" cy="85.84" r="70.84"/><circle class="cls-2" cx="85.84" cy="85.84" r="70.84"/><path d="M52.77,49.17c7.62-.66,8.79,9.91,2.06,11.48-8.37,1.96-10.44-10.76-2.06-11.48Z"/><path d="M126.64,85.5c.25-6.03-.43-12.84-5.25-17.04-3.99-3.48-10.81-4.31-15.83-3.02-3.45.89-6.03,3.11-8.1,5.91-1.13-2.06-2.45-3.73-4.51-4.92-4.51-2.61-11.84-2.27-15.64,1.48-.23.22-.93,1.26-1.01,1.28-.31.1-.16-.19-.2-.34-.25-1.16-.31-2.4-.54-3.57h-9.3v22.76l-7.95.27v-23.03h-9.97v23.44l-8.49.4v7.07c0,.1.16.15.28.15.95,0,1.95-.05,2.9-.07,1.06-.03,2.15-.1,3.23-.13.33,0,2.08-.39,2.08.06v8.01h9.97v-8.62l7.95-.27v8.89h10.11v-9.43l15.22-.53.14,9.96h9.97v-10.37l14.62-.68c.11-.02.34.14.34.21v10.84h9.97v-11.25c0-.08.23-.21.34-.2l7.34-.27v-7.27l-7.68.27ZM91.61,86.98l-15.23.67v-5.72c0-.32.38-1.66.5-2.06,2.36-7.41,11.97-7.77,14.25-.03.12.4.47,1.63.47,1.95v5.19ZM116.54,86.04l-14.82.54c-.03-3.02-.12-6.19,1.64-8.8,3.04-4.49,10.03-4.83,12.35.53.25.57.83,2.39.83,2.94v4.78Z"/></g></svg>