<?xml version="1.0" encoding="UTF-8"?><svg id="Capa_2" xmlns="http://www.w3.org/2000/svg" viewBox="0 0 677.21 119.26"><defs><style>.cls-1{fill:#fff;}.cls-2{fill:#c1c1c1;}.cls-3{fill:#ededed;}</style></defs><g id="Capa_1-2"><path class="cls-1" d="M40.99,15.96C42.2,7.35,53.96-.4,62.36.02c11.22.56,15.26,8.46,20.44,16.64,13.97,22.1,27.49,46.6,39.11,69.89,2.44,17.99-17.5,29.74-32.42,19.42-5.76-3.99-23.69-36.62-28.49-45.01-.46.2-.91.34-1.36.32-1.89-.11-17.85-28.48-19.14-32.45-1.74-5.35-1.84-7.48.5-12.87Z"/><path class="cls-1" d="M245.99,64.96h-26v-11h35.5c1.44,0,1.46,3.36,1.55,4.45,3.75,44.08-59.19,50.92-73.92,12.92C167.94,32.17,216.68.48,246.99,28.49c.28,1.12-5.65,7.09-6.71,7.36-1.37.35-9.04-4.74-12.09-5.6-25.22-7.09-44.64,19.31-32.01,42.01,11.75,21.12,45.82,17.36,49.81-7.31Z"/><path class="cls-3" d="M60.99,60.96c-6.97,10.24-11.56,22.92-20,32l-1.91-1.67c.23-16.77-16.22-24.1-30.14-16.11l-1.96-1.22L40.99,15.96c-.29,2.06-.26,6.39.06,8.44.87,5.52,16.02,29.72,19.94,36.56Z"/><path class="cls-2" d="M40.99,92.96c-.45,5.05-4.47,10.06-8.51,12.99-14.15,10.27-34.93-1.7-32.25-19.25.48-3.17,4.15-10.95,6.76-12.74,1.54-1.06,9.45-3.84,11.51-4.01,13.79-1.15,23.7,9.4,22.49,23.01Z"/><path class="cls-1" d="M666.71,56.25c-4.72-3.89-19.92-3.41-17.58,5,1.82,6.54,25.77,3.76,27.8,16.27,3.64,22.45-29.19,25.13-37.97,6.95-.5-1.03-1.66-.63.03-1.99,1.1-.89,6.11-2.78,7.34-2.59.5.08,3.94,6.12,6.91,7.32,6.68,2.71,19.11-.12,13.81-8.82-3.67-6.03-26.77-2.15-27.14-17.93-.29-12.09,12.4-15.77,22.49-14.41,4.09.55,16.77,6.99,12.58,11.41-5.05,5.33-6.21.49-8.28-1.21Z"/><path class="cls-1" d="M430.99,20.96c2.18-2.18,7.83-.52,11-1v75h-12.01c1.1-8.92-1.83-71.16,1.01-74l2,.93v69.43c3.73-.02,6.4.85,8,2.64l-2-.93V22.16l2-1.21c-.57,3.13-9.16,2.99-10,0Z"/><path class="cls-1" d="M411.99,50.95c-5.9-2.79-10.3-5.75-17.25-4.76-29.86,4.22-26.03,51.44,3.71,50.8,5.47-.12,8.72-3.56,13.54-5.02.43,11.74-7.2,20.77-19.39,15.9-5.64-2.25-5.67-7.14-6.62-7.9-.42-.34-8.17,4.25-9.98,4.02,4.39,16.71,30.86,20.5,41,7.48,1.4-1.8,4.69-8.99,5-11v-53.5c-4.88.74-11.61-2.67-10.01,4ZM399.31,86.64c-16.89.24-18.66-27.03-3.61-30.47,20.1-4.6,22.19,30.2,3.61,30.47Z"/><path class="cls-1" d="M555.5,26.95c-1.19-1.44-8.05-1.45-9.84-.83-3.49,1.19-23.11,61.11-26.66,68.83,2.2-.46,8.5.74,9.86-.13.77-.5,4.39-14.72,6.22-17.28,1.12-1.57,1.62-1.44,3.36-1.64,2.94-.34,24.3-.23,25.57.54,2.32,2.21,5.89,17.59,7.12,18.38,1.04.67,9.66.5,9.82-1.35l-25.45-66.52ZM538.99,67.96c2.83-9.08,5.7-19.36,9.54-28.01.47-1.07.05-2.59,1.95-2,1.52.47,9.01,26.37,10.51,30.01h-22Z"/><path class="cls-1" d="M621.99,25.96v27c-19.83-19.42-45.89,3.99-37.19,27.69,6.04,16.44,25.11,21.15,37.18,8.31-1.11,7.51,3.3,6.07,9.01,6V25.96h-9ZM610.43,87.89c-21.65,3.36-24.07-30.78-5.69-33.7,21.35-3.38,23.1,31,5.69,33.7Z"/><path class="cls-1" d="M484.6,80.01c-1.08.31-1.32,2.16-1.95,2.59-7.03,4.85-17.53,5.54-21.65-3.13l32.58-14.49c-9.38-32.26-51.52-20.6-45.12,13.02,3.11,16.34,23.28,23.34,37.25,15.16,2.09-1.22,8.58-6.69,7.17-9.09-.24-.4-7.28-4.35-8.27-4.06ZM480.97,60.46l-21.97,9.5c-.84-12.03,13.83-19.68,21.97-9.5Z"/><path class="cls-1" d="M281.73,46.19c-24.78,4.2-25.62,45.15,0,49.53,40.35,6.88,40.61-56.41,0-49.53ZM278.09,82.36c-13.91-13.11,6.05-36.93,19.55-22.05,11.68,12.87-5.51,35.3-19.55,22.05Z"/><path class="cls-1" d="M337.73,46.19c-28.31,4.82-25.79,54.78,10.5,49.5,29.6-4.31,25.17-55.58-10.5-49.5ZM345.4,85.87c-20.35,2.56-20.65-30.58-1.89-30,2.75.09,8.41,2.41,10.18,4.39,6.99,7.8,2.96,24.19-8.29,25.61Z"/><rect class="cls-1" x="430.99" y="20.96" width="10" height="73"/></g></svg>