<?xml version="1.0" encoding="UTF-8"?><svg id="Capa_2" xmlns="http://www.w3.org/2000/svg" viewBox="0 0 138.58 33"><defs><style>.cls-1{fill:#fff;}</style></defs><g id="Capa_1-2"><g id="LOGOS"><path class="cls-1" d="M24.48,6.61c-2.24-1.46-3.59-3.94-3.6-6.61h-5.67v22.74c-.11,2.63-2.32,4.68-4.95,4.58s-4.68-2.32-4.58-4.95c.1-2.56,2.2-4.58,4.77-4.58.48,0,.95.07,1.41.22v-5.79c-.46-.06-.94-.1-1.41-.1-5.75,0-10.44,4.69-10.44,10.44s4.67,10.44,10.44,10.44,10.44-4.67,10.44-10.44v-11.53c2.3,1.65,5.06,2.54,7.89,2.54v-5.67c-1.52,0-3.01-.44-4.3-1.28Z"/><path class="cls-1" d="M34.2,7.93h17.89l-1.64,5.11h-4.65v18.93h-5.78V13.04h-5.82s0-5.11,0-5.11Z"/><path class="cls-1" d="M81.4,7.93h18.3l-1.64,5.11h-5.05v18.93h-5.79V13.04h-5.82s0-5.11,0-5.11Z"/><polygon class="cls-1" points="53.19 15.57 58.92 15.57 58.92 31.97 53.22 31.97 53.19 15.57"/><path class="cls-1" d="M61.19,7.85h5.73v11.19l5.68-5.57h6.84l-7.18,6.97,8.05,11.52h-6.31l-5.37-7.99-1.7,1.65v6.33h-5.73V7.85h0Z"/><path class="cls-1" d="M119.46,7.85h5.73v11.19l5.68-5.57h6.84l-7.18,6.97,8.05,11.52h-6.31l-5.37-7.99-1.7,1.65v6.33h-5.73V7.85h0Z"/><circle class="cls-1" cx="56.05" cy="10.81" r="2.88"/><path class="cls-1" d="M107.31,12.33c-5.42,0-9.82,4.39-9.82,9.81s4.39,9.82,9.81,9.82,9.82-4.39,9.82-9.81h0c0-5.42-4.38-9.81-9.81-9.82ZM107.31,26.92c-2.64,0-4.77-2.13-4.77-4.77s2.13-4.77,4.77-4.77,4.77,2.13,4.77,4.77h0c0,2.64-2.13,4.77-4.77,4.77Z"/></g></g></svg>