<?xml version="1.0" encoding="UTF-8"?><svg id="Capa_2" xmlns="http://www.w3.org/2000/svg" viewBox="0 0 216.02 42"><defs><style>.cls-1,.cls-2{fill:#fff;}.cls-2{font-family:Lexend-Black, Lexend;font-size:27.15px;font-weight:800;}.cls-3{letter-spacing:0em;}.cls-4{letter-spacing:0em;}</style></defs><g id="Capa_1-2"><path class="cls-1" d="M35.09,16.29L7.91.56C7.08.19,6.16-.03,5.25,0,2.59.11.33,2.19,0,4.84l.06,31.88c.28,4.03,4.46,6.49,8.1,4.68l27.03-16.03c3.16-2.21,3.04-6.92-.11-9.08ZM8.27,1.21l24.31,14.13c-.36.03-.77-.04-1.13,0-.49.05-1.01.24-1.48.39-2.87,1.53-5.62,3.29-8.42,4.93l-.36-.1c-5.86-3.63-12.15-6.77-17.97-10.42C-3.07,6.18,2.07-2.16,8.27,1.21ZM21.02,20.85l-9.93,5.97-.08-11.71,10.01,5.74ZM.38,7.66l.74,1.23.97.97,8.49,5.01.1,12.25-8.44,5.02-.94.93-.86,1.35-.08-26.76ZM6.6,41.23c-6.87,1.73-8.48-9.09-1.58-9.57,5.86-.41,7.16,8.16,1.58,9.57ZM32.53,26.5l-23.77,14.06c4.03-3.58.96-10.05-4.35-9.23l.08-.11,25.4-15.03c4.15-1.79,8.43,2.12,6.9,6.43-.74,2.09-2.52,2.8-4.27,3.88Z"/><text class="cls-2" transform="translate(48.02 29.77)"><tspan x="0" y="0">Goog</tspan><tspan class="cls-3" x="75.95" y="0">l</tspan><tspan class="cls-4" x="84.99" y="0">e ADS</tspan></text></g></svg>