<?xml version="1.0" encoding="UTF-8"?><svg id="Capa_2" xmlns="http://www.w3.org/2000/svg" xmlns:xlink="http://www.w3.org/1999/xlink" viewBox="0 0 1278.75 312.5"><defs><style>.cls-1{fill:#fff;}.cls-2{fill:none;}.cls-3{clip-path:url(#clippath);}</style><clipPath id="clippath"><rect class="cls-2" width="1278.75" height="312.5"/></clipPath></defs><g id="svg2"><g id="g10"><path id="path12" class="cls-1" d="M503.75,112.64h40.39v126.87h-40.39v-126.87Z"/><g id="g14"><g class="cls-3"><g id="g16"><g id="g22"><path id="path24" class="cls-1" d="M552.57,112.64h38.9v17.35h.74c9.42-13.63,21.56-21.06,39.15-21.06,27.75,0,44.11,19.82,44.11,48.07v82.51h-40.39v-74.33c0-13.38-6.69-22.55-19.82-22.55s-22.3,11.15-22.3,26.76v70.12h-40.39v-126.87Z"/></g><g id="g26"><path id="path28" class="cls-1" d="M548.17,78.7c0-13.38-10.85-24.23-24.23-24.23s-24.23,10.85-24.23,24.23,10.85,24.23,24.23,24.23,24.23-10.85,24.23-24.23"/></g><g id="g30"><path id="path32" class="cls-1" d="M959.53,110.81c-1.15-.1-2.47-.15-4.02-.15-15.36,0-25.77,6.69-34.69,21.8h-.74v-19.82h-38.65v126.86h40.39v-56.99c0-26.41,14.62-38.64,37.72-36.51v-35.2Z"/></g><g id="g34"><path id="path36" class="cls-1" d="M1157.74,159.47c-16.11-2.97-30.48-4.21-30.48-13.13,0-7.93,7.68-11.65,17.59-11.65,11.15,0,18.83,3.47,20.32,14.87h37.17c-1.98-25.03-21.31-40.64-57.24-40.64-29.98,0-54.76,13.88-54.76,40.64,0,29.73,23.54,35.68,45.59,39.4,16.85,2.97,32.21,4.21,32.21,15.61,0,8.18-7.68,12.64-19.82,12.64s-20.24-5.15-22.71-15.61h-38.49c2.83,26.08,25.73,41.87,61.44,41.87,33.2,0,57.73-14.37,57.73-42.12,0-32.46-26.26-38.16-48.57-41.88"/></g><g id="g38"><path id="path40" class="cls-1" d="M1022.19,137.67c13.13,0,22.55,9.66,24.04,24.78h-50.05c2.72-15.12,10.65-24.78,26.02-24.78M1024.42,214.23c-16.6,0-26.02-10.65-28.5-27.75h91.19c.25-25.77-7.19-47.82-22.3-61.7-10.9-9.91-25.27-15.86-43.36-15.86-38.65,0-65.17,28.99-65.17,66.9s25.77,67.4,67.65,67.4c16.1,0,28.99-4.21,39.65-11.65,11.15-7.68,18.58-18.58,21.31-29.98h-39.4c-3.47,7.93-10.41,12.64-21.06,12.64"/></g><g id="g42"><path id="path44" class="cls-1" d="M1277.44,209.59c-1.87.07-4.38.18-6.69.18-8.67,0-14.12-2.48-14.12-12.39v-59.47h20.82v-25.27h-20.82v-40.14h-39.4v40.14h-12.4v25.27h12.4v68.14c0,27.26,16.85,34.94,40.39,34.94,8.98,0,15.77-.67,19.82-1.46v-29.94Z"/></g><g id="g46"><path id="path48" class="cls-1" d="M747.6,209.65c-1.61.06-3.47.13-5.21.13-8.67,0-14.12-2.48-14.12-12.39v-59.47h19.33v-25.27h-19.33v-40.14h-39.4v40.14h-13.14v25.27h13.14v68.14c0,27.26,16.85,34.94,40.39,34.94,7.96,0,14.2-.53,18.34-1.2v-30.14Z"/></g><g id="g50"><path id="path52" class="cls-1" d="M835.57,162.45c-1.49-15.12-10.9-24.78-24.04-24.78-15.36,0-23.29,9.66-26.02,24.78h50.05ZM745.63,175.83c0-37.91,26.51-66.9,65.17-66.9,18.09,0,32.46,5.95,43.36,15.86,15.12,13.88,22.55,35.93,22.3,61.7h-91.18c2.48,17.1,11.89,27.75,28.49,27.75,10.65,0,17.59-4.71,21.06-12.64h39.4c-2.73,11.4-10.16,22.3-21.31,29.98-10.65,7.43-23.54,11.65-39.64,11.65-41.88,0-67.65-28.99-67.65-67.4"/></g><g id="g54"><path id="path56" class="cls-1" d="M433.6,145.6c15.86,0,24.78-9.42,24.78-23.54s-9.17-22.8-24.78-22.8h-30.98v46.34h30.98ZM361.74,62.34h70.14c21.56,0,37.41,5.95,48.32,16.35,11.4,10.65,17.84,25.77,17.84,43.61,0,33.95-23.54,57.98-59.97,57.98h-35.44v59.22h-40.89s0-177.17,0-177.17Z"/></g><path class="cls-1" d="M153.8,3.76c-40.6,0-77.5,15.87-104.83,41.75-1.01.96-2.02,1.93-3,2.91-1.12,1.12-2.21,2.26-3.3,3.41-.95,1.01-1.89,2.04-2.81,3.08-1.08,1.22-2.15,2.45-3.19,3.7-.96,1.15-1.91,2.31-2.84,3.49C13.46,88.03,1.31,120.72,1.31,156.25c0,1.19.02,2.39.05,3.57,0,.35.02.69.03,1.04.03.87.06,1.73.1,2.6.02.37.03.73.05,1.1.05.98.11,1.95.19,2.92.01.2.03.41.04.61.09,1.16.19,2.32.31,3.47.03.32.07.65.1.97.09.84.19,1.69.29,2.53.05.39.1.79.15,1.18.11.83.23,1.66.35,2.49.05.33.09.66.14.98.17,1.11.35,2.22.55,3.32.06.31.12.62.17.93.15.82.3,1.63.47,2.44.08.42.17.84.26,1.26.15.73.31,1.45.47,2.18.09.41.18.81.28,1.22.23,1,.47,1.99.73,2.98.09.35.18.69.27,1.04.21.8.42,1.59.64,2.38.13.46.26.91.39,1.36.18.63.37,1.27.56,1.9.14.47.29.94.43,1.4.21.67.43,1.35.65,2.02.18.56.37,1.11.56,1.67.28.8.56,1.6.85,2.4.18.49.36.98.55,1.47.2.55.41,1.09.62,1.63.2.51.4,1.03.61,1.54.21.52.42,1.04.64,1.56.21.5.41,1.01.63,1.51.38.9.77,1.79,1.17,2.67.24.54.49,1.07.74,1.6.21.45.42.91.64,1.36.26.55.53,1.1.8,1.65.21.42.42.84.63,1.26.28.56.56,1.12.85,1.67.18.35.37.7.55,1.04.57,1.07,1.14,2.14,1.74,3.2.19.35.39.7.59,1.05.33.58.66,1.15.99,1.72.2.35.41.69.62,1.04.35.58.69,1.16,1.04,1.73.17.28.34.55.51.82.74,1.19,1.5,2.37,2.27,3.53.14.2.27.41.4.61.39.59.79,1.17,1.19,1.75.2.29.4.58.6.87.4.58.81,1.15,1.22,1.72.18.25.36.5.54.74,1.41,1.93,2.85,3.82,4.35,5.68.19.24.38.48.58.72.46.56.92,1.12,1.38,1.68.19.23.39.46.58.69,1.56,1.84,3.16,3.64,4.81,5.41.18.2.36.39.55.59.5.53,1,1.05,1.51,1.58.22.23.44.45.67.68.51.52,1.03,1.05,1.55,1.57.12.12.24.23.36.35,1.09,1.08,2.2,2.13,3.33,3.18.17.16.34.32.51.48.53.48,1.06.96,1.59,1.43.26.23.52.46.78.69.52.46,1.05.92,1.58,1.38.24.21.49.41.74.62,1.11.94,2.24,1.87,3.38,2.78.14.11.28.23.42.34.53.42,1.06.83,1.6,1.24.32.25.64.49.96.74.52.39,1.04.78,1.56,1.17.34.25.69.5,1.03.75.52.38,1.04.76,1.57,1.13,0,0,.02.01.03.02,1.24.88,2.5,1.73,3.78,2.58.41.27.81.54,1.22.8.49.32.99.64,1.49.95.44.28.88.55,1.32.83.48.3.95.59,1.43.88.59.36,1.19.71,1.79,1.06.65.38,1.3.75,1.95,1.12.56.32,1.12.63,1.68.94.44.24.89.48,1.34.72.55.29,1.1.58,1.65.87.43.22.86.45,1.29.66.7.35,1.4.7,2.11,1.05.33.16.65.32.98.48.91.44,1.83.86,2.75,1.28.36.16.73.32,1.09.49.68.3,1.36.6,2.05.9.37.16.74.31,1.11.47.79.33,1.59.66,2.39.98.24.09.47.19.71.29.06.03.13.05.19.07-1.33-12.07-2.54-30.62.53-43.79,2.77-11.9,17.88-75.8,17.88-75.8,0,0-4.56-9.13-4.56-22.64,0-21.2,12.29-37.03,27.59-37.03,13.01,0,19.29,9.77,19.29,21.48,0,13.08-8.33,32.65-12.63,50.77-3.59,15.18,7.61,27.55,22.58,27.55,27.1,0,47.94-28.58,47.94-69.83,0-36.51-26.23-62.04-63.7-62.04-43.39,0-68.86,32.54-68.86,66.18,0,13.11,5.05,27.16,11.35,34.8,1.25,1.51,1.43,2.83,1.06,4.37-1.16,4.82-3.73,15.17-4.23,17.29-.66,2.79-2.21,3.38-5.1,2.04-19.04-8.86-30.95-36.71-30.95-59.08,0-48.1,34.95-92.28,100.76-92.28,52.9,0,94.01,37.7,94.01,88.07s-33.14,94.85-79.13,94.85c-15.45,0-29.98-8.03-34.95-17.51,0,0-7.65,29.11-9.5,36.25-3.44,13.24-12.74,29.85-18.95,39.98,1.65.51,3.32.99,5,1.45.25.07.5.14.75.2,3.35.89,6.75,1.68,10.19,2.34.31.06.62.12.93.18,3.39.64,6.82,1.16,10.29,1.57.38.04.75.09,1.13.13,3.42.38,6.88.64,10.37.79.42.02.85.03,1.27.05,1.74.06,3.48.1,5.24.1,19.6,0,38.33-3.7,55.54-10.43,56.75-22.2,96.95-77.43,96.95-142.06C306.29,72.03,238.02,3.76,153.8,3.76Z"/></g></g></g></g></g></svg>