<?xml version="1.0" encoding="UTF-8"?><svg id="Capa_2" xmlns="http://www.w3.org/2000/svg" viewBox="0 0 143.47 40.63"><defs><style>.cls-1{fill:#fff;}</style></defs><g id="Capa_1-2"><path class="cls-1" d="M125.01,15.67h6.31l4.07,9.33,3.92-9.33h4.04s.12.12.12.19l-8.52,19.44h-4.48c-.02-.26.12-.49.21-.72.7-1.74,1.7-3.42,2.32-5.19l-4.69-10.28h-3.29v11.38l-.11.11h-4.04l-.11-.11v-11.38h-2.65l-.11-.11v-3.21l.11-.11h2.65v-2.13c0-.2.21-.9.28-1.14,1.02-3.42,4.67-4.35,7.64-2.74l1.49,3.44c-.08.1-.11.13-.24.1-.15-.04-.6-.35-.82-.45-.98-.41-1.98-.62-2.97-.1-.51.27-1.12,1.05-1.12,1.65v1.38Z"/><path class="cls-1" d="M49.16,23.77l.15-.08c.31.24.55.59.86.86,2.02,1.8,5.48,3.09,8.19,2.5,2.13-.47,2.75-2.9.82-4.03-3.08-1.8-9.47-1.45-10.01-6.28-.81-7.28,8.79-8.59,13.67-5.74.14.08.61.36.68.44.23.32,0,3.6.04,4.23-.19.27-.87-.42-1.09-.56-2.01-1.3-4.65-2.11-7.03-1.44-1.88.53-3.03,2.47-.78,3.5,3.68,1.69,9.99,1.7,10,7.34.01,7.21-9.86,7.76-14.5,4.62-.18-.12-.98-.73-.98-.89v-4.48Z"/><path class="cls-1" d="M106.92,15.67h3.85l.11.11v3.21l-.11.11h-3.85v6.46c0,.13.25.79.34.93.79,1.2,2.53.84,3.62.3v3.17c-1.18.78-2.97.99-4.36.77-1.97-.31-3.86-2.06-3.86-4.13v-7.5h-2.73l-.11-.11v-1.94l6.92-5.48.18.1v3.99Z"/><polygon class="cls-1" points="112.42 15.67 116.45 15.67 116.56 15.78 116.56 30.49 116.45 30.6 112.42 30.6 112.3 30.49 112.3 15.78 112.42 15.67"/><path class="cls-1" d="M114.01,8.9c3.33-.4,3.99,3.93,1.14,4.65-3.65.91-4.41-4.26-1.14-4.65Z"/><path class="cls-1" d="M19.55.02C3.35.72-5.65,19.12,3.92,32.31c8.89,12.26,27.83,10.69,34.62-2.8C45.49,15.68,34.98-.64,19.55.02ZM29.55,30.05c-.29.29-.79.39-1.19.31-.38-.08-1.67-.89-2.17-1.12-4.61-2.1-9.57-2.64-14.56-1.83-.49.08-1.08.3-1.53.34-1.48.14-1.92-1.82-.55-2.34,1.71-.65,5.58-.87,7.44-.79,3.7.16,9.16,1.45,12.27,3.5.67.44.9,1.33.3,1.93ZM32.01,24.92c-1.07.87-2.04-.08-3.05-.53-6.27-2.85-13.04-3.71-19.81-2.15-.37-.07-.79-.21-1.06-.48-.69-.68-.6-1.85.2-2.39.49-.33,1.82-.52,2.45-.62,6.44-1.04,13.35-.07,19.25,2.68.52.24,1.66.74,2.06,1.08.76.64.73,1.8-.03,2.42ZM33.43,19.48c-.68-.07-2.34-1.05-3.1-1.38-6.23-2.67-12.81-3.42-19.53-2.56-1.47.19-3.76,1.07-4.3-1.03-.49-1.92,1.23-2.36,2.67-2.62,1.56-.28,3.2-.45,4.78-.52,6.16-.26,12.2.78,17.85,3.17.83.35,2.88,1.19,3.39,1.84,1.04,1.35-.04,3.27-1.75,3.1Z"/><path class="cls-1" d="M71.46,17.01l-1.31,1.72v-2.87s-.17-.19-.19-.19h-4v19.63h4.11c-.02-.07.07-.16.07-.19v-7.5c.33.39.56.84.9,1.23,3,3.43,8.31,2.33,10.25-1.63,3.33-6.8-2.77-15.49-9.84-10.2ZM77.93,23.47c-.21,3.81-4.03,5.06-6.5,2.16-.35-.41-1.39-2.06-1.39-2.54,0-.2.36-1.06.48-1.28.65-1.32,1.92-2.58,3.43-2.76,2.75-.33,4.11,1.94,3.98,4.42Z"/><path class="cls-1" d="M90.92,15.32c-5.16.33-8.58,4.74-7.35,9.83,1.85,7.66,13.82,7.79,15.9.13,1.54-5.65-2.89-10.32-8.55-9.96ZM90.84,27.22c-4.28-.54-4.32-7.59,0-8.17,6.15-.83,6.23,8.96,0,8.17Z"/></g></svg>