<?xml version="1.0" encoding="UTF-8"?><svg id="Capa_2" xmlns="http://www.w3.org/2000/svg" viewBox="0 0 130.22 33"><defs><style>.cls-1{fill:#fff;}</style></defs><g id="Capa_1-2"><path id="Path_2514" class="cls-1" d="M0,4.88h5.09v18.54h9.42v4.7H0V4.88Z"/><path id="Path_2515" class="cls-1" d="M16.76,12.37h4.89v15.75h-4.89v-15.75ZM19.21,4.54c1.57,0,2.84,1.27,2.84,2.84s-1.27,2.84-2.84,2.84c-1.57,0-2.84-1.27-2.84-2.84s1.27-2.84,2.84-2.84h0"/><path id="Path_2516" class="cls-1" d="M42.11,4.88h4.89v13.89l5.54-6.41h6l-6.42,7.29,6.28,8.47h-6.15l-5.19-7.78h-.06v7.78h-4.89V4.88Z"/><path id="Path_2517" class="cls-1" d="M24.36,12.37h4.7v2.15h.07c.96-1.64,2.74-2.62,4.63-2.54,4.96,0,5.87,3.26,5.87,7.5v8.64h-4.89v-7.66c0-1.83-.03-4.18-2.55-4.18s-2.93,1.99-2.93,4.04v7.79h-4.89v-15.74Z"/><path id="Path_2518" class="cls-1" d="M68.83,18.41c.04-1.62-1.24-2.96-2.86-3-.05,0-.09,0-.14,0-1.78-.11-3.32,1.22-3.46,3h6.46ZM72.97,25.39c-1.65,2-4.1,3.15-6.69,3.13-4.89,0-8.8-3.26-8.8-8.32s3.91-8.32,8.8-8.32c4.57,0,7.44,3.26,7.44,8.32v1.53h-11.35c.29,1.8,1.86,3.11,3.69,3.07,1.41,0,2.73-.73,3.49-1.92l3.42,2.51Z"/><path id="Path_2519" class="cls-1" d="M83.91,16.17c-2.44,0-3.91,1.63-3.91,4.01s1.47,4.01,3.91,4.01,3.92-1.63,3.92-4.01-1.47-4.01-3.92-4.01M92.33,28.11h-4.5v-2.09h-.07c-1.14,1.54-2.94,2.46-4.86,2.48-4.7,0-7.79-3.39-7.79-8.19,0-4.4,2.74-8.45,7.24-8.45,2.02,0,3.91.55,5.02,2.09h.06V4.88h4.89v23.23Z"/><path id="Path_2520" class="cls-1" d="M125.34,28.12h-4.89v-7.66c0-1.83-.03-4.18-2.54-4.18s-2.94,1.99-2.94,4.04v7.79h-4.89v-15.75h4.69v2.15h.07c.96-1.64,2.74-2.61,4.63-2.54,4.96,0,5.87,3.26,5.87,7.5v8.64ZM104.57,10.22c-1.57,0-2.84-1.27-2.84-2.84,0-1.57,1.27-2.84,2.84-2.84,1.57,0,2.84,1.27,2.84,2.84,0,1.57-1.27,2.84-2.84,2.84h0M107.01,28.12h-4.89v-15.75h4.89v15.75ZM127.78,0h-28.12c-1.33-.02-2.42,1.05-2.44,2.38v28.24c.02,1.33,1.11,2.4,2.44,2.38h28.12c1.33.02,2.43-1.05,2.44-2.38V2.38c-.02-1.33-1.11-2.4-2.44-2.38"/></g></svg>