<?xml version="1.0" encoding="UTF-8"?><svg id="Capa_2" xmlns="http://www.w3.org/2000/svg" viewBox="0 0 144.59 29.14"><defs><style>.cls-1{fill:#fff;}</style></defs><g id="Capa_1-2"><g id="Wordmark"><path class="cls-1" d="M53.07.94h5.48l9.32,16.86L77.19.94h5.36v27.7h-4.47V7.41l-8.17,14.7h-4.19l-8.17-14.7v21.23h-4.47V.94Z"/><path class="cls-1" d="M96.97,29.13c-2.07,0-3.89-.46-5.46-1.37-1.57-.92-2.79-2.19-3.67-3.81-.88-1.62-1.32-3.48-1.32-5.58,0-2.12.43-4,1.29-5.64.86-1.64,2.05-2.91,3.57-3.84,1.52-.92,3.27-1.38,5.25-1.38,1.97,0,3.66.46,5.07,1.39,1.42.93,2.51,2.23,3.27,3.91.76,1.68,1.15,3.64,1.15,5.9v1.23h-15.17c.28,1.69.96,3.02,2.05,3.99,1.09.97,2.46,1.45,4.12,1.45,1.33,0,2.48-.2,3.44-.59.96-.4,1.87-1,2.71-1.8l2.37,2.91c-2.36,2.16-5.26,3.24-8.69,3.24ZM100.24,12.7c-.94-.96-2.16-1.43-3.68-1.43-1.48,0-2.71.49-3.71,1.46-1,.98-1.63,2.29-1.89,3.94h10.88c-.13-1.69-.67-3.01-1.6-3.97Z"/><path class="cls-1" d="M111.55,11.66h-4.12v-3.66h4.12V1.95h4.31v6.05h6.25v3.66h-6.25v9.28c0,1.54.26,2.64.79,3.3.53.66,1.43.99,2.71.99.57,0,1.05-.02,1.44-.07.4-.05.83-.11,1.31-.19v3.62c-.54.16-1.09.28-1.65.36-.64.09-1.28.14-1.93.14-4.66,0-6.98-2.55-6.98-7.64v-9.79Z"/><path class="cls-1" d="M144.59,28.63h-4.23v-2.89c-.75,1.08-1.71,1.92-2.87,2.5-1.16.59-2.48.88-3.96.88-1.82,0-3.43-.46-4.84-1.39-1.4-.93-2.51-2.21-3.31-3.84-.8-1.63-1.21-3.49-1.21-5.59,0-2.11.41-3.98,1.23-5.6.82-1.62,1.95-2.89,3.39-3.82,1.44-.92,3.1-1.38,4.98-1.38,1.41,0,2.68.27,3.8.82,1.11.53,2.06,1.33,2.79,2.32v-2.65h4.23v20.63ZM140.28,15.22c-.46-1.17-1.19-2.1-2.19-2.78-1-.68-2.15-1.02-3.45-1.02-1.85,0-3.32.62-4.41,1.86-1.09,1.24-1.64,2.91-1.64,5.03,0,2.12.53,3.81,1.58,5.04,1.05,1.24,2.49,1.86,4.29,1.86,1.33,0,2.52-.34,3.56-1.03,1.04-.69,1.79-1.61,2.26-2.77v-6.19Z"/></g><g id="Symbol"><path class="cls-1" d="M31.47,0c-3.6,0-6.41,2.71-8.95,6.15C19.02,1.7,16.1,0,12.6,0,5.47,0,0,9.28,0,19.11c0,6.15,2.97,10.03,7.96,10.03,3.59,0,6.17-1.69,10.75-9.71,0,0,1.91-3.38,3.23-5.7.46.74.95,1.55,1.46,2.4l2.15,3.62c4.19,7.01,6.52,9.38,10.75,9.38,4.85,0,7.56-3.93,7.56-10.21,0-10.29-5.59-18.93-12.38-18.93ZM15.21,17.26c-3.72,5.83-5,7.13-7.07,7.13s-3.4-1.87-3.4-5.2c0-7.13,3.56-14.43,7.8-14.43,2.3,0,4.21,1.33,7.15,5.53-2.79,4.28-4.48,6.97-4.48,6.97ZM29.24,16.53l-2.57-4.29c-.7-1.13-1.36-2.17-2.01-3.12,2.32-3.58,4.23-5.36,6.5-5.36,4.72,0,8.5,6.95,8.5,15.49,0,3.26-1.07,5.14-3.28,5.14-2.12,0-3.13-1.4-7.15-7.87Z"/></g></g></svg>