<?xml version="1.0" encoding="UTF-8"?>
<svg id="Capa_2" xmlns="http://www.w3.org/2000/svg" version="1.1" viewBox="0 0 101.3 17.4">
  <!-- Generator: Adobe Illustrator 29.5.0, SVG Export Plug-In . SVG Version: 2.1.0 Build 137)  -->
  <defs>
    <style>
      .st0 {
        fill: aqua;
      }

      .st1 {
        fill: #fff;
      }
    </style>
  </defs>
  <g id="Capa_2-2">
    <g id="Capa_1-2">
      <path class="st1" d="M3.1,3.4c-.6,0-1.1-.2-1.4-.4-.3-.3-.5-.7-.5-1.2s.2-.9.5-1.2C2.1.2,2.5,0,3.1,0s1.1.2,1.4.4c.3.3.5.7.5,1.2s-.2.9-.5,1.2c-.3.3-.8.5-1.4.5h0Z"/>
      <rect class="st1" x="1.6" y="5.7" width="3.1" height="11.5"/>
      <path class="st0" d="M87,3.4c-.6,0-1.1-.2-1.4-.4-.3-.3-.5-.7-.5-1.2s.2-.9.5-1.2c.3-.3.8-.5,1.4-.5s1.1.2,1.4.4c.3.3.5.7.5,1.2s-.2.9-.5,1.2c-.3.3-.8.5-1.4.5h0Z"/>
      <rect class="st0" x="85.4" y="5.7" width="3.1" height="11.5"/>
      <path class="st1" d="M5.7,17.2V5.7h3v2.2c0,0-.4,0-.4,0,.2-.4.4-.7.6-1,.3-.3.6-.6.9-.8s.7-.4,1.1-.5c.4-.1.8-.2,1.2-.2.6,0,1.1,0,1.6.3s.9.5,1.2.9.6.9.8,1.6h-.5s.1-.4.1-.4c.2-.3.4-.7.7-.9.3-.3.6-.5,1-.7.4-.2.8-.4,1.1-.5.4-.1.8-.2,1.2-.2.9,0,1.7.2,2.3.5.6.3,1,.9,1.4,1.6.3.7.5,1.6.5,2.6v7h-3.1v-6.7c0-.5,0-.9-.2-1.3s-.4-.6-.6-.8c-.3-.2-.6-.2-1.1-.2s-.6,0-.9.2-.5.3-.8.5c-.2.2-.4.4-.5.7-.1.3-.2.6-.2.9v6.9h-3.1v-6.8c0-.5,0-.9-.2-1.2-.1-.3-.4-.6-.6-.8-.3-.2-.6-.3-1-.3s-.6,0-.9.2-.5.3-.7.5-.4.4-.5.7c-.1.3-.2.5-.2.9v6.9h-3.1,0Z"/>
      <path class="st1" d="M24.6,17.2V5.7h3v2.2c0,0-.4,0-.4,0,.2-.4.4-.7.6-1s.6-.6.9-.8.7-.4,1.1-.5c.4-.1.8-.2,1.2-.2.6,0,1.1,0,1.6.3s.9.5,1.2.9.6.9.8,1.6h-.5s.2-.4.2-.4c.2-.3.4-.7.7-.9s.6-.5,1-.7c.4-.2.8-.4,1.1-.5.4-.1.8-.2,1.2-.2.9,0,1.7.2,2.3.5.6.3,1,.9,1.3,1.6.3.7.5,1.6.5,2.6v7h-3.1v-6.7c0-.5,0-.9-.2-1.3s-.4-.6-.6-.8-.6-.2-1.1-.2-.7,0-.9.2-.5.3-.8.5c-.2.2-.4.4-.5.7-.1.3-.2.6-.2.9v6.9h-3.1v-6.8c0-.5,0-.9-.2-1.2s-.4-.6-.6-.8c-.3-.2-.6-.3-1-.3s-.6,0-.9.2-.5.3-.7.5-.4.4-.5.7c-.1.3-.2.5-.2.9v6.9h-3.1,0,0Z"/>
      <path class="st1" d="M49.7,17.3c-1.2,0-2.2-.3-3.2-.8-.9-.5-1.7-1.2-2.2-2.1-.5-.9-.8-1.9-.8-3.1s.3-2.2.8-3.1c.5-.9,1.3-1.6,2.2-2.1.9-.5,2-.8,3.2-.8s2.2.3,3.2.8,1.7,1.2,2.2,2.1c.5.9.8,1.9.8,3.1s-.3,2.2-.8,3.1c-.5.9-1.2,1.6-2.2,2.1s-2,.8-3.2.8ZM49.7,14.6c.6,0,1.1-.1,1.5-.4.5-.3.8-.7,1.1-1.2.3-.5.4-1.1.4-1.7,0-.6-.1-1.2-.4-1.7-.3-.5-.6-.9-1.1-1.2s-1-.4-1.5-.4-1.1.1-1.6.4c-.5.3-.8.7-1.1,1.2-.3.5-.4,1.1-.4,1.7,0,.6.1,1.2.4,1.7s.6.9,1.1,1.2c.5.3,1,.4,1.6.4Z"/>
      <path class="st1" d="M56.8,17.2V5.7h3v3.7c.1,0-.4-.8-.4-.8.2-.6.5-1.1.9-1.6s.9-.9,1.4-1.1c.5-.3,1.1-.4,1.7-.4s.5,0,.7,0c.2,0,.4,0,.6.2l-.8,3.4c-.2,0-.4-.2-.6-.2-.3,0-.5-.1-.8-.1s-.7,0-1,.2-.6.3-.8.5c-.2.2-.4.5-.5.8-.1.3-.2.6-.2,1v5.9h-3.1,0Z"/>
      <path class="st1" d="M70.2,17.4c-1,0-1.8-.3-2.6-.8-.8-.5-1.4-1.2-1.8-2.1-.4-.9-.7-1.9-.7-3.1s.2-2.2.7-3.1c.5-.9,1.1-1.6,1.9-2.1.8-.5,1.7-.8,2.7-.8s1.1,0,1.6.2.9.4,1.2.7.7.6.9,1,.4.8.5,1.2h-.7v-2.9h3.1v11.5h-3.1v-2.8h.7c-.1.3-.3.7-.6,1.1s-.6.7-1,1c-.4.3-.8.5-1.3.7s-1,.2-1.5.2h0ZM71,14.7c.6,0,1.1-.1,1.5-.4.4-.3.8-.7,1-1.2s.4-1.1.4-1.7-.1-1.2-.4-1.7-.6-.9-1-1.2c-.4-.3-.9-.4-1.5-.4s-1.1.1-1.5.4-.8.7-1,1.2-.4,1.1-.4,1.7.1,1.2.4,1.7c.2.5.6.9,1,1.2.4.3.9.4,1.5.4Z"/>
      <path class="st0" d="M94.5,17.4c-1,0-1.8-.3-2.6-.8-.8-.5-1.4-1.2-1.8-2.1-.4-.9-.7-1.9-.7-3.1s.2-2.2.7-3.1c.5-.9,1.1-1.6,1.9-2.1.8-.5,1.7-.8,2.7-.8s1.1,0,1.6.2.9.4,1.2.7.7.6.9,1,.4.8.5,1.2h-.7v-2.9h3.1v11.5h-3.1v-2.8h.7c-.1.3-.3.7-.6,1.1s-.6.7-1,1c-.4.3-.8.5-1.3.7s-1,.2-1.5.2h0ZM95.3,14.7c.6,0,1.1-.1,1.5-.4.4-.3.8-.7,1-1.2s.4-1.1.4-1.7-.1-1.2-.4-1.7-.6-.9-1-1.2c-.4-.3-.9-.4-1.5-.4s-1.1.1-1.5.4-.8.7-1,1.2-.4,1.1-.4,1.7.1,1.2.4,1.7c.2.5.6.9,1,1.2.4.3.9.4,1.5.4Z"/>
      <path class="st1" d="M78.5,17.2V0h3.1v17.2h-3.1Z"/>
      <path class="st1" d="M0,12.3l84.2-3.3v2L0,14.3v-2Z"/>
    </g>
  </g>
</svg>