<?xml version="1.0" encoding="UTF-8"?><svg id="Capa_2" xmlns="http://www.w3.org/2000/svg" viewBox="0 0 100.65 17.45"><defs><style>.cls-1{fill:#fff;}.cls-2{fill:#9520ea;}</style></defs><g id="Capa_2-2"><g id="Capa_1-2"><path class="cls-2" d="M34.65,14.09c-.3.22-.62.38-.96.48-.34.1-.7.15-1.08.15-.59,0-1.11-.14-1.58-.43s-.84-.68-1.11-1.17-.41-1.04-.41-1.65.13-1.2.4-1.7c.26-.49.63-.88,1.09-1.16.46-.28.99-.42,1.6-.42.38,0,.75.07,1.11.2s.69.31,1,.53c.31.22.56.47.77.75l1.72-2.04c-.48-.67-1.16-1.19-2.02-1.56-.87-.38-1.82-.56-2.86-.56-1.11,0-2.11.26-2.99.78-.88.52-1.57,1.23-2.08,2.13-.51.9-.76,1.92-.76,3.06s.25,2.17.76,3.06c.51.9,1.2,1.61,2.08,2.13s1.88.78,2.99.78c.98,0,1.92-.19,2.81-.58.89-.38,1.57-.89,2.06-1.51l-1.69-2.04c-.25.3-.52.56-.83.78h-.02Z"/><path class="cls-2" d="M46.43,6.26c-.93-.51-1.98-.77-3.16-.77s-2.25.26-3.18.77-1.67,1.22-2.2,2.12c-.54.9-.8,1.93-.8,3.09s.27,2.19.8,3.09c.54.9,1.27,1.6,2.2,2.12.93.51,1.99.77,3.18.77s2.23-.26,3.16-.77,1.66-1.22,2.19-2.12.79-1.93.79-3.09-.26-2.19-.79-3.09c-.53-.9-1.26-1.6-2.19-2.12ZM45.87,13.15c-.26.5-.61.89-1.07,1.17-.45.28-.97.42-1.54.42s-1.11-.14-1.56-.42-.81-.67-1.08-1.17c-.26-.5-.39-1.06-.37-1.68,0-.64.11-1.2.37-1.7.26-.49.62-.88,1.08-1.17.45-.29.98-.43,1.56-.43s1.09.14,1.54.42.81.67,1.07,1.17.38,1.07.36,1.71c0,.62-.11,1.18-.36,1.68Z"/><path class="cls-2" d="M59.36,6.01c-.59-.35-1.33-.52-2.21-.52-.65,0-1.26.13-1.85.39-.59.26-1.09.61-1.51,1.03-.1.1-.2.21-.28.32l-.06-1.51h-2.99v11.5h3.12v-6.91c0-.3.06-.59.19-.85.12-.26.29-.49.51-.7.21-.2.47-.36.77-.47.3-.11.63-.16.98-.16.44-.01.81.06,1.11.22s.52.41.67.76c.15.35.22.78.22,1.3v6.8h3.12v-7.04c0-1.03-.15-1.89-.45-2.6-.3-.7-.75-1.23-1.34-1.58v.02Z"/><polygon class="cls-2" points="69.47 8.49 69.47 5.73 67.08 5.73 67.08 2.81 63.95 2.81 63.95 5.73 61.77 5.73 61.77 8.49 63.95 8.49 63.95 17.22 67.08 17.22 67.08 8.49 69.47 8.49"/><path class="cls-2" d="M79.17,7.11c-.49-.51-1.07-.92-1.75-1.21-.67-.29-1.41-.43-2.2-.43-.85,0-1.64.15-2.37.45-.73.3-1.35.72-1.88,1.26s-.94,1.18-1.23,1.92-.44,1.56-.44,2.46c0,1.14.26,2.16.78,3.04s1.25,1.58,2.2,2.09,2.05.76,3.31.76c.53,0,1.06-.07,1.61-.2.54-.13,1.07-.32,1.58-.58.51-.25.98-.57,1.41-.95l-1.5-2.06c-.48.39-.94.67-1.36.83-.43.16-.89.24-1.41.24-.75,0-1.4-.14-1.95-.42-.55-.28-.98-.68-1.28-1.18-.17-.29-.29-.61-.37-.96h8.3l.02-.96c.03-.81-.09-1.57-.35-2.27-.26-.7-.64-1.31-1.13-1.83h.01ZM73.62,8.49c.45-.25.99-.37,1.64-.37.44,0,.84.09,1.19.27.35.18.64.43.87.74.23.31.36.66.39,1.05v.09h-5.35c.06-.25.14-.48.24-.7.23-.48.58-.84,1.02-1.09h0Z"/><path class="cls-2" d="M90.54,6.01c-.59-.35-1.33-.52-2.21-.52-.65,0-1.26.13-1.85.39-.59.26-1.09.61-1.51,1.03-.1.1-.2.21-.28.32l-.06-1.51h-2.99v11.5h3.12v-6.91c0-.3.06-.59.19-.85.12-.26.29-.49.51-.7.21-.2.47-.36.77-.47.3-.11.63-.16.98-.16.44-.01.81.06,1.11.22s.52.41.67.76.22.78.22,1.3v6.8h3.12v-7.04c0-1.03-.15-1.89-.45-2.6-.3-.7-.75-1.23-1.34-1.58v.02Z"/><polygon class="cls-2" points="100.65 5.73 98.26 5.73 98.26 2.81 95.13 2.81 95.13 5.73 92.95 5.73 92.95 8.49 95.13 8.49 95.13 17.22 98.26 17.22 98.26 8.49 100.65 8.49 100.65 5.73"/><path class="cls-1" d="M1.79,2.93c.34.3.81.45,1.41.45s1.05-.16,1.4-.48c.34-.32.52-.72.52-1.22s-.17-.93-.51-1.23c-.34-.3-.81-.45-1.41-.45s-1.05.16-1.4.47c-.34.31-.52.71-.52,1.21,0,.54.17.95.51,1.25Z"/><path class="cls-1" d="M26.03,11.28l-1.31.06v-1.09c0-1.03-.15-1.9-.45-2.61-.3-.71-.75-1.24-1.35-1.6-.6-.35-1.36-.53-2.27-.53-.38,0-.77.06-1.17.17-.4.12-.78.28-1.14.48-.37.2-.7.45-.99.74-.24.23-.44.48-.61.75-.16-.38-.35-.71-.58-.98-.34-.4-.75-.69-1.23-.88s-1.03-.28-1.63-.28c-.4,0-.79.06-1.19.18s-.77.29-1.12.51-.66.48-.94.78c-.07.08-.14.17-.21.25l-.05-1.51h-3.01v6.38l-2,.09v-6.46H1.66v6.6l-1.66.07v2.09l1.66-.07v2.81h3.12v-2.95l2-.09v3.03h3.15v-3.17l4.22-.18v3.35h3.15v-3.48l4.29-.18v3.67h3.12v-3.8l1.29-.06v-2.09h.03ZM9.93,11.97v-1.64c0-.3.06-.59.18-.85s.28-.49.48-.68c.21-.2.45-.35.74-.46s.6-.16.94-.16c.41,0,.76.09,1.03.26.28.17.49.43.64.77.15.34.22.75.22,1.23v1.35l-4.22.18h0ZM17.3,11.65v-1.3c0-.3.06-.59.18-.86.12-.27.28-.5.5-.7.21-.2.46-.35.75-.46s.6-.16.94-.16c.44,0,.8.08,1.08.25s.49.42.64.75.22.76.22,1.28v1.01l-4.29.18h-.02Z"/></g></g></svg>