<?xml version="1.0" encoding="UTF-8"?><svg id="Capa_2" xmlns="http://www.w3.org/2000/svg" viewBox="0 0 98.28 18.33"><defs><style>.cls-1{fill:#fff;}.cls-2{fill:#8d001c;}</style></defs><g id="Capa_2-2"><g id="Capa_1-2"><path class="cls-1" d="M3.54,3.54c-.63,0-1.13-.16-1.48-.47-.36-.31-.53-.75-.53-1.31,0-.52.18-.94.54-1.27.36-.33.85-.49,1.47-.49s1.13.16,1.48.47c.35.31.53.74.53,1.29,0,.52-.18.94-.54,1.28s-.85.5-1.47.5ZM1.92,18.1V6.01h3.29v12.09H1.92Z"/><path class="cls-1" d="M6.85,18.1V6.01h3.17l.07,2.31-.49.09c.17-.4.4-.75.68-1.07.29-.32.61-.59.98-.82s.76-.41,1.18-.54.83-.19,1.25-.19c.63,0,1.2.1,1.71.3.51.2.94.51,1.3.93.35.42.63.97.83,1.66l-.51-.05.16-.37c.2-.37.45-.7.76-1.01.31-.3.66-.56,1.04-.78.39-.21.79-.38,1.2-.5.42-.12.83-.18,1.23-.18.96,0,1.75.19,2.38.56.63.37,1.11.93,1.42,1.68.32.75.47,1.66.47,2.74v7.34h-3.29v-7.11c0-.55-.08-1-.23-1.35s-.38-.61-.67-.79c-.29-.17-.67-.26-1.13-.26-.36,0-.68.06-.98.17s-.56.27-.79.48c-.22.21-.4.45-.52.73-.12.28-.19.58-.19.9v7.22h-3.31v-7.13c0-.5-.08-.93-.23-1.29s-.38-.63-.67-.81-.66-.27-1.09-.27c-.36,0-.68.06-.98.17s-.56.27-.78.48c-.22.21-.39.45-.51.72s-.19.57-.19.89v7.25h-3.31.04Z"/><path class="cls-2" d="M26.1,9.05v-2.74h7.78v2.74h-7.78ZM27.93,18.1V5.17c0-.75.17-1.42.51-2.03s.81-1.09,1.4-1.44c.59-.35,1.29-.53,2.09-.53.54,0,1.05.09,1.53.26.48.18.89.41,1.23.7l-.97,2.4c-.2-.12-.4-.22-.61-.31-.21-.08-.4-.13-.57-.13-.29,0-.54.05-.73.15-.19.1-.34.24-.43.43s-.14.43-.14.72v12.71s-3.31,0-3.31,0Z"/><path class="cls-2" d="M38.34,18.33c-1.02,0-1.94-.27-2.75-.82-.82-.55-1.47-1.29-1.94-2.24-.48-.94-.72-2.03-.72-3.25s.24-2.3.73-3.25c.49-.94,1.15-1.68,1.98-2.22.83-.53,1.78-.8,2.85-.8.6,0,1.15.09,1.65.26.5.18.94.42,1.32.72s.7.66.96,1.05c.26.4.45.82.56,1.28l-.69-.11v-2.95h3.26v12.09h-3.31v-2.9l.74-.07c-.12.43-.32.83-.6,1.21-.28.38-.62.72-1.03,1.02-.41.3-.87.53-1.38.71-.51.17-1.05.26-1.62.26h-.01ZM39.25,15.52c.62,0,1.16-.14,1.62-.43s.82-.7,1.08-1.22c.25-.53.38-1.14.38-1.84s-.13-1.29-.38-1.81-.61-.93-1.08-1.22c-.46-.3-1-.45-1.62-.45s-1.13.15-1.59.45-.81.7-1.08,1.22c-.26.52-.39,1.12-.39,1.81s.13,1.31.39,1.84c.26.53.62.93,1.08,1.22.45.29.98.43,1.59.43Z"/><path class="cls-2" d="M51.09,18.33c-1.14,0-2.16-.19-3.04-.56-.89-.37-1.6-.89-2.14-1.54l2.06-1.74c.46.5.99.86,1.57,1.09.59.22,1.17.33,1.76.33.23,0,.44-.03.64-.08.19-.05.36-.13.5-.23.14-.1.24-.22.31-.37.07-.14.1-.3.1-.47,0-.34-.14-.59-.42-.78-.15-.09-.39-.19-.72-.31s-.74-.24-1.25-.38c-.79-.2-1.45-.43-2-.7-.55-.27-.98-.57-1.31-.9-.28-.32-.49-.67-.64-1.04-.15-.37-.22-.79-.22-1.25,0-.55.12-1.05.37-1.5s.59-.83,1.03-1.15.94-.57,1.52-.74c.57-.17,1.17-.26,1.81-.26s1.25.08,1.85.23,1.16.37,1.68.65.97.61,1.35.99l-1.76,1.92c-.28-.26-.59-.49-.94-.71-.35-.21-.71-.38-1.08-.5-.37-.12-.7-.18-1-.18-.26,0-.5.02-.71.07-.21.05-.38.12-.52.22s-.24.22-.31.35c-.07.14-.1.29-.1.46s.04.33.13.48c.08.15.2.28.36.39.17.09.42.2.75.32s.78.26,1.35.41c.74.2,1.37.42,1.89.66s.93.53,1.24.85c.26.27.45.59.58.94.12.35.19.74.19,1.17,0,.75-.21,1.41-.64,1.99-.42.58-1.01,1.04-1.75,1.37s-1.57.5-2.5.5h.01Z"/><path class="cls-2" d="M56.46,18.1V1.19h3.24v7.29l-.65.27c.17-.55.47-1.05.91-1.5s.97-.81,1.59-1.09c.62-.27,1.26-.41,1.94-.41.93,0,1.7.18,2.33.55.62.37,1.1.92,1.41,1.66.32.74.47,1.65.47,2.73v7.41h-3.29v-7.15c0-.55-.08-1.01-.23-1.37-.15-.37-.39-.63-.71-.8s-.71-.24-1.17-.23c-.37,0-.71.06-1.03.17s-.59.28-.81.49-.4.46-.53.73c-.13.27-.2.57-.2.89v7.27h-3.29.02Z"/><path class="cls-2" d="M70.9,3.54c-.63,0-1.13-.16-1.48-.47-.36-.31-.53-.75-.53-1.31,0-.52.18-.94.54-1.27.36-.33.85-.49,1.47-.49s1.13.16,1.48.47c.35.31.53.74.53,1.29,0,.52-.18.94-.54,1.28s-.85.5-1.47.5ZM69.28,18.1V6.01h3.29v12.09h-3.29Z"/><path class="cls-2" d="M79.93,18.33c-1.25,0-2.36-.27-3.34-.81-.98-.54-1.75-1.28-2.31-2.23-.56-.94-.84-2.03-.84-3.25s.28-2.3.84-3.25c.56-.94,1.33-1.69,2.31-2.23.98-.54,2.09-.81,3.34-.81s2.34.27,3.32.81,1.75,1.28,2.3,2.23c.56.94.83,2.03.83,3.25s-.28,2.3-.83,3.25c-.56.94-1.32,1.69-2.3,2.23-.98.54-2.09.81-3.32.81ZM79.93,15.5c.6,0,1.14-.15,1.62-.45s.85-.71,1.12-1.23c.27-.53.4-1.12.38-1.77.02-.67-.11-1.27-.38-1.79-.27-.53-.64-.94-1.12-1.23-.48-.3-1.02-.45-1.62-.45s-1.17.15-1.64.46c-.48.3-.86.72-1.13,1.23-.28.52-.41,1.11-.39,1.78-.02.66.12,1.25.39,1.77.28.53.66.94,1.13,1.23.48.3,1.03.45,1.64.45Z"/><path class="cls-2" d="M87.04,18.1V6.01h3.15l.09,2.47-.65.27c.17-.55.47-1.05.91-1.5s.97-.81,1.59-1.09c.62-.27,1.26-.41,1.94-.41.93,0,1.7.18,2.33.55.62.37,1.1.92,1.41,1.66.32.74.47,1.65.47,2.73v7.41h-3.29v-7.15c0-.55-.08-1.01-.23-1.37-.15-.37-.39-.63-.71-.8s-.71-.24-1.17-.23c-.37,0-.71.06-1.03.17s-.59.28-.81.49-.4.46-.53.73c-.13.27-.2.57-.2.89v7.27h-3.29.02Z"/><polygon class="cls-1" points="27.4 11.85 27.38 14.05 0 15.22 .02 13.02 27.4 11.85"/></g></g></svg>