<?xml version="1.0" encoding="UTF-8"?><svg id="Capa_2" xmlns="http://www.w3.org/2000/svg" viewBox="0 0 73.56 17.58"><defs><style>.cls-1{fill:#fff;}.cls-2{fill:#f6d305;}</style></defs><g id="Capa_2-2"><g id="Capa_1-2"><path class="cls-1" d="M3.1,3.4c-.61,0-1.08-.15-1.42-.45s-.51-.72-.51-1.26c0-.5.17-.9.52-1.22.35-.31.82-.47,1.41-.47s1.08.15,1.42.45.51.71.51,1.24c0,.5-.17.91-.52,1.23s-.82.48-1.41.48ZM1.55,17.36V5.76h3.15v11.6H1.55Z"/><path class="cls-1" d="M6.72,17.36V5.76h3.04l.07,2.21-.47.09c.16-.38.38-.72.65-1.03.27-.31.59-.57.94-.79s.73-.39,1.13-.52c.4-.12.8-.19,1.2-.19.61,0,1.15.1,1.64.28.49.19.9.49,1.24.89.34.4.61.93.8,1.59l-.49-.04.16-.35c.19-.35.44-.67.73-.96.3-.29.63-.54,1-.75.37-.2.75-.37,1.15-.48.4-.12.79-.18,1.18-.18.92,0,1.68.18,2.29.54s1.06.9,1.36,1.61c.3.72.45,1.59.45,2.63v7.04h-3.15v-6.82c0-.53-.07-.96-.22-1.29-.15-.34-.36-.59-.64-.76-.28-.17-.64-.25-1.09-.25-.34,0-.65.05-.94.16s-.54.26-.75.46-.38.43-.5.7c-.12.27-.18.56-.18.87v6.93h-3.17v-6.84c0-.48-.07-.89-.22-1.24-.15-.34-.36-.6-.64-.78-.28-.18-.63-.26-1.04-.26-.34,0-.65.05-.94.16s-.54.26-.74.46c-.21.2-.37.43-.49.69-.12.26-.18.55-.18.85v6.95h-3.17v.02Z"/><path class="cls-2" d="M30.77,5.17c0-.28.04-.51.13-.69.09-.18.23-.32.41-.42.18-.09.42-.14.7-.14.16,0,.34.04.54.12.2.08.4.18.59.3l.93-2.3c-.33-.28-.72-.5-1.18-.67-.46-.17-.95-.25-1.46-.25-.77,0-1.44.17-2.01.5-.57.34-1.02.8-1.34,1.38-.33.58-.49,1.23-.49,1.95v1.1h-1.75v2.63h1.75v8.68h3.17v-8.68h2.53v-2.63h-2.53v-.88h.01Z"/><path class="cls-2" d="M36.5,3.4c-.61,0-1.08-.15-1.42-.45-.34-.3-.51-.72-.51-1.26,0-.5.17-.9.52-1.22.35-.31.82-.47,1.41-.47s1.08.15,1.42.45c.34.3.51.71.51,1.24,0,.5-.17.91-.52,1.23-.35.32-.82.48-1.41.48Z"/><rect class="cls-2" x="34.95" y="5.76" width="3.15" height="11.6"/><path class="cls-2" d="M40.16,17.36V1.14h3.15v16.22s-3.15,0-3.15,0Z"/><path class="cls-2" d="M45.16,17.36V5.76h3.04l.07,2.21-.47.09c.16-.38.38-.72.65-1.03.27-.31.59-.57.94-.79s.73-.39,1.13-.52c.4-.12.8-.19,1.2-.19.61,0,1.15.1,1.64.28.49.19.9.49,1.24.89.34.4.61.93.8,1.59l-.49-.04.16-.35c.19-.35.44-.67.73-.96.3-.29.63-.54,1-.75.37-.2.75-.37,1.15-.48.4-.12.79-.18,1.18-.18.92,0,1.68.18,2.29.54s1.06.9,1.36,1.61c.3.72.45,1.59.45,2.63v7.04h-3.15v-6.82c0-.53-.07-.96-.22-1.29-.15-.34-.36-.59-.64-.76s-.64-.25-1.09-.25c-.34,0-.65.05-.94.16s-.54.26-.75.46-.38.43-.5.7c-.12.27-.18.56-.18.87v6.93h-3.17v-6.84c0-.48-.07-.89-.22-1.24-.15-.34-.36-.6-.64-.78-.28-.18-.63-.26-1.04-.26-.34,0-.65.05-.94.16s-.54.26-.74.46c-.21.2-.37.43-.49.69-.12.26-.18.55-.18.85v6.95h-3.17v.02Z"/><path class="cls-2" d="M68.86,17.58c-1.1,0-2.07-.18-2.92-.54s-1.54-.85-2.05-1.48l1.98-1.67c.44.48.95.83,1.51,1.04.56.21,1.12.32,1.69.32.22,0,.43-.03.61-.08s.34-.12.48-.22c.13-.09.23-.21.3-.35s.1-.29.1-.45c0-.32-.13-.57-.4-.75-.15-.09-.38-.19-.69-.3s-.71-.23-1.2-.36c-.75-.19-1.39-.41-1.92-.67s-.94-.54-1.25-.87c-.27-.31-.47-.64-.61-1s-.21-.76-.21-1.19c0-.53.12-1,.36-1.44.24-.43.57-.8.99-1.11s.91-.54,1.45-.71c.55-.17,1.12-.25,1.73-.25s1.2.07,1.78.22c.58.15,1.11.35,1.61.62s.93.59,1.3.95l-1.69,1.84c-.27-.25-.57-.47-.9-.68-.33-.2-.68-.37-1.03-.48-.36-.12-.67-.18-.95-.18-.25,0-.48.02-.68.07-.2.04-.37.11-.5.21-.13.1-.23.21-.3.34s-.1.28-.1.44.04.31.12.46.2.27.34.37c.16.09.4.19.72.31.32.12.75.25,1.3.39.71.19,1.31.4,1.81.64.5.23.89.5,1.19.81.25.26.44.56.55.9.12.34.18.71.18,1.12,0,.72-.2,1.35-.61,1.91-.41.56-.97.99-1.68,1.32-.71.32-1.51.48-2.4.48v.02Z"/><polygon class="cls-1" points="26.27 11.37 26.26 13.47 0 14.59 .02 12.49 26.27 11.37"/></g></g></svg>