<?xml version="1.0" encoding="UTF-8"?><svg id="Capa_2" xmlns="http://www.w3.org/2000/svg" viewBox="0 0 101.33 17.39"><defs><style>.cls-1{fill:#0582eb;}.cls-2{fill:#fff;}</style></defs><g id="Capa_2-2"><g id="Capa_1-2"><path class="cls-2" d="M3.12,3.41c-.6,0-1.07-.15-1.4-.44-.34-.3-.5-.71-.5-1.25,0-.49.17-.89.52-1.2C2.07.2,2.54.05,3.12.05s1.07.15,1.4.44c.34.3.5.7.5,1.22,0,.49-.17.9-.52,1.21-.34.32-.81.48-1.39.48h0Z"/><rect class="cls-2" x="1.58" y="5.71" width="3.12" height="11.47"/><path class="cls-1" d="M86.96,3.41c-.6,0-1.07-.15-1.4-.44-.34-.3-.5-.71-.5-1.25,0-.49.17-.89.52-1.2.34-.31.81-.47,1.39-.47s1.07.15,1.4.44c.34.3.5.7.5,1.22,0,.49-.17.9-.52,1.21-.34.32-.81.48-1.39.48h0Z"/><rect class="cls-1" x="85.42" y="5.71" width="3.12" height="11.47"/><path class="cls-2" d="M5.71,17.18V5.71h3.01l.07,2.19-.46.09c.16-.38.38-.72.65-1.02.27-.3.58-.56.93-.78s.72-.39,1.12-.51c.4-.12.79-.18,1.19-.18.6,0,1.14.09,1.62.28s.89.48,1.23.88.6.92.79,1.57l-.48-.04.15-.35c.19-.35.43-.66.72-.95.29-.29.62-.53.99-.74.37-.2.75-.36,1.14-.48.4-.12.78-.17,1.16-.17.91,0,1.66.18,2.26.53.6.35,1.05.89,1.35,1.59.3.71.45,1.58.45,2.6v6.96h-3.12v-6.74c0-.52-.07-.95-.22-1.28s-.36-.58-.64-.75c-.28-.17-.64-.25-1.08-.25-.34,0-.65.05-.93.16s-.53.26-.75.46c-.21.2-.38.43-.49.69-.12.27-.18.55-.18.86v6.85h-3.14v-6.76c0-.48-.07-.88-.22-1.22-.15-.34-.36-.6-.64-.77-.28-.17-.62-.26-1.03-.26-.34,0-.65.05-.93.16s-.53.26-.74.46-.37.42-.48.68c-.12.26-.18.54-.18.85v6.87h-3.14.02Z"/><path class="cls-2" d="M24.58,17.18V5.71h3.01l.07,2.19-.46.09c.16-.38.38-.72.65-1.02s.58-.56.93-.78.72-.39,1.12-.51c.4-.12.79-.18,1.19-.18.6,0,1.14.09,1.62.28s.89.48,1.23.88.6.92.79,1.57l-.48-.04.15-.35c.19-.35.43-.66.72-.95s.62-.53.99-.74c.37-.2.75-.36,1.14-.48.4-.12.78-.17,1.16-.17.91,0,1.66.18,2.26.53.6.35,1.05.89,1.35,1.59.3.71.45,1.58.45,2.6v6.96h-3.12v-6.74c0-.52-.07-.95-.22-1.28s-.36-.58-.64-.75-.64-.25-1.08-.25c-.34,0-.65.05-.93.16s-.53.26-.75.46c-.21.2-.38.43-.49.69-.12.27-.18.55-.18.86v6.85h-3.14v-6.76c0-.48-.07-.88-.22-1.22s-.36-.6-.64-.77c-.28-.17-.62-.26-1.03-.26-.34,0-.65.05-.93.16s-.53.26-.74.46-.37.42-.48.68c-.12.26-.18.54-.18.85v6.87h-3.14.02Z"/><path class="cls-2" d="M49.65,17.34c-1.19,0-2.24-.26-3.17-.77-.93-.51-1.66-1.22-2.19-2.11-.53-.9-.8-1.92-.8-3.08s.27-2.18.8-3.08c.53-.9,1.27-1.6,2.19-2.11.93-.51,1.99-.77,3.17-.77s2.22.26,3.15.77,1.66,1.22,2.18,2.11c.53.9.79,1.92.79,3.08s-.26,2.18-.79,3.08c-.53.9-1.25,1.6-2.18,2.11s-1.98.77-3.15.77ZM49.65,14.65c.57,0,1.08-.14,1.54-.42.45-.28.81-.67,1.06-1.17.26-.5.38-1.06.36-1.68,0-.64-.11-1.2-.36-1.7-.26-.5-.61-.89-1.06-1.17s-.97-.42-1.54-.42-1.1.14-1.56.43c-.45.29-.81.68-1.08,1.17-.26.49-.39,1.05-.37,1.69,0,.62.11,1.18.37,1.68s.62.89,1.08,1.17c.45.28.97.42,1.56.42Z"/><path class="cls-2" d="M56.79,17.18V5.71h3.01l.11,3.68-.53-.76c.18-.59.46-1.13.86-1.61s.86-.86,1.39-1.14c.53-.27,1.09-.41,1.68-.41.25,0,.49.02.72.07.23.04.43.09.59.15l-.83,3.38c-.16-.09-.37-.16-.63-.23-.26-.07-.52-.1-.78-.1-.35,0-.68.06-.98.18s-.56.3-.78.52c-.22.22-.39.49-.52.79-.12.3-.19.64-.19,1v5.94h-3.14.02Z"/><path class="cls-2" d="M70.17,17.39c-.97,0-1.84-.26-2.61-.78-.78-.52-1.39-1.23-1.84-2.12-.45-.9-.68-1.92-.68-3.08s.23-2.18.69-3.08c.46-.9,1.09-1.6,1.88-2.1.79-.51,1.69-.76,2.7-.76.57,0,1.09.08,1.57.25s.89.39,1.25.68.66.62.91,1,.42.78.53,1.21l-.66-.11v-2.8h3.09v11.47h-3.14v-2.75l.7-.07c-.12.4-.31.79-.57,1.15s-.59.68-.98.96c-.39.28-.82.51-1.31.67s-1,.25-1.54.25h.01ZM71.03,14.73c.59,0,1.1-.14,1.54-.41.44-.27.78-.66,1.02-1.16s.36-1.08.36-1.74-.12-1.22-.36-1.71-.58-.88-1.02-1.16c-.44-.28-.95-.42-1.54-.42s-1.07.14-1.5.42-.77.67-1.02,1.16-.37,1.06-.37,1.71.12,1.25.37,1.74c.25.5.59.89,1.02,1.16.43.27.93.41,1.5.41Z"/><path class="cls-1" d="M94.5,17.39c-.97,0-1.84-.26-2.61-.78-.78-.52-1.39-1.23-1.84-2.12-.45-.9-.68-1.92-.68-3.08s.23-2.18.69-3.08c.46-.9,1.09-1.6,1.88-2.1.79-.51,1.69-.76,2.7-.76.57,0,1.09.08,1.57.25s.89.39,1.25.68.66.62.91,1,.42.78.53,1.21l-.66-.11v-2.8h3.09v11.47h-3.14v-2.75l.7-.07c-.12.4-.31.79-.57,1.15s-.59.68-.98.96c-.39.28-.82.51-1.31.67s-1,.25-1.54.25h.01ZM95.35,14.73c.59,0,1.1-.14,1.54-.41.44-.27.78-.66,1.02-1.16s.36-1.08.36-1.74-.12-1.22-.36-1.71-.58-.88-1.02-1.16c-.44-.28-.95-.42-1.54-.42s-1.07.14-1.5.42-.77.67-1.02,1.16-.37,1.06-.37,1.71.12,1.25.37,1.74c.25.5.59.89,1.02,1.16.43.27.93.41,1.5.41Z"/><path class="cls-2" d="M78.5,17.18V0h3.12v17.18h-3.12Z"/><path class="cls-2" d="M0,12.3l84.19-3.27v2.04L0,14.34v-2.04Z"/></g></g></svg>